<svg width="551" height="666" viewBox="0 0 551 666" fill="none" xmlns="http://www.w3.org/2000/svg">
<path opacity="0.1" fill-rule="evenodd" clip-rule="evenodd" d="M450.957 226.551C453.892 228.624 456.607 230.951 459.08 233.492L459.108 233.515L459.106 233.517C472.984 247.784 479.238 268.775 473.756 289.413C465.454 320.662 433.394 339.264 402.143 330.962C391.543 328.147 382.403 322.595 375.269 315.271L325.406 272.666L401.161 184.004L450.957 226.551Z" fill="black"/>
<path opacity="0.1" fill-rule="evenodd" clip-rule="evenodd" d="M285.055 392.938C287.989 395.011 290.705 397.337 293.178 399.879L293.206 399.9L293.204 399.902C307.081 414.169 313.335 435.157 307.853 455.797C299.551 487.046 267.492 505.649 236.241 497.347C225.64 494.532 216.501 488.979 209.366 481.656L159.504 439.053L235.256 350.391L285.055 392.938Z" fill="black"/>
<path opacity="0.1" fill-rule="evenodd" clip-rule="evenodd" d="M450.957 559.325C453.892 561.398 456.607 563.724 459.08 566.266L459.108 566.287L459.106 566.289C472.984 580.556 479.238 601.546 473.756 622.182C465.454 653.431 433.394 672.034 402.143 663.732C391.543 660.916 382.403 655.364 375.269 648.04L325.406 605.438L401.161 516.775L450.957 559.325Z" fill="black"/>
<path opacity="0.1" fill-rule="evenodd" clip-rule="evenodd" d="M285.055 60.168C287.989 62.2414 290.705 64.5678 293.178 67.109L293.206 67.1324L293.204 67.1345C307.081 81.4012 313.335 102.392 307.853 123.03C299.551 154.279 267.492 172.881 236.241 164.579C225.64 161.764 216.501 156.212 209.366 148.888L159.504 106.286L235.256 17.623L285.055 60.168Z" fill="black"/>
<path fill-rule="evenodd" clip-rule="evenodd" d="M544.429 536.07H457.015L438 555.086L457.015 574.101V574.103H544.429V574.101L525.414 555.086L544.429 536.07Z" fill="#4708C2"/>
<path d="M473.107 561V559.227L477.249 555.392C477.601 555.051 477.897 554.744 478.135 554.472C478.378 554.199 478.561 553.932 478.686 553.67C478.811 553.405 478.874 553.119 478.874 552.812C478.874 552.472 478.796 552.178 478.641 551.932C478.486 551.682 478.273 551.491 478.004 551.358C477.736 551.222 477.431 551.153 477.09 551.153C476.734 551.153 476.423 551.225 476.158 551.369C475.893 551.513 475.688 551.72 475.544 551.989C475.4 552.258 475.328 552.578 475.328 552.949H472.993C472.993 552.187 473.165 551.527 473.51 550.966C473.855 550.405 474.338 549.972 474.959 549.665C475.58 549.358 476.296 549.205 477.107 549.205C477.94 549.205 478.665 549.352 479.283 549.648C479.904 549.939 480.387 550.345 480.732 550.864C481.076 551.383 481.249 551.977 481.249 552.648C481.249 553.087 481.162 553.521 480.987 553.949C480.817 554.377 480.512 554.852 480.073 555.375C479.633 555.894 479.014 556.517 478.215 557.244L476.516 558.909V558.989H481.402V561H473.107ZM487.747 561.256C486.77 561.252 485.929 561.011 485.225 560.534C484.524 560.057 483.984 559.366 483.605 558.46C483.23 557.555 483.045 556.466 483.049 555.193C483.049 553.924 483.236 552.843 483.611 551.949C483.99 551.055 484.53 550.375 485.23 549.909C485.935 549.439 486.774 549.205 487.747 549.205C488.721 549.205 489.558 549.439 490.259 549.909C490.963 550.379 491.505 551.061 491.884 551.955C492.263 552.845 492.45 553.924 492.446 555.193C492.446 556.47 492.257 557.561 491.878 558.466C491.503 559.371 490.965 560.062 490.264 560.54C489.564 561.017 488.725 561.256 487.747 561.256ZM487.747 559.216C488.414 559.216 488.946 558.881 489.344 558.21C489.742 557.54 489.939 556.534 489.935 555.193C489.935 554.311 489.844 553.576 489.662 552.989C489.484 552.402 489.23 551.96 488.901 551.665C488.575 551.369 488.191 551.222 487.747 551.222C487.085 551.222 486.554 551.553 486.156 552.216C485.759 552.879 485.558 553.871 485.554 555.193C485.554 556.087 485.643 556.833 485.821 557.432C486.003 558.027 486.259 558.473 486.588 558.773C486.918 559.068 487.304 559.216 487.747 559.216ZM494.201 561V559.227L498.343 555.392C498.695 555.051 498.99 554.744 499.229 554.472C499.471 554.199 499.655 553.932 499.78 553.67C499.905 553.405 499.968 553.119 499.968 552.812C499.968 552.472 499.89 552.178 499.735 551.932C499.579 551.682 499.367 551.491 499.098 551.358C498.829 551.222 498.524 551.153 498.183 551.153C497.827 551.153 497.517 551.225 497.252 551.369C496.986 551.513 496.782 551.72 496.638 551.989C496.494 552.258 496.422 552.578 496.422 552.949H494.087C494.087 552.187 494.259 551.527 494.604 550.966C494.949 550.405 495.432 549.972 496.053 549.665C496.674 549.358 497.39 549.205 498.201 549.205C499.034 549.205 499.759 549.352 500.377 549.648C500.998 549.939 501.481 550.345 501.826 550.864C502.17 551.383 502.343 551.977 502.343 552.648C502.343 553.087 502.255 553.521 502.081 553.949C501.911 554.377 501.606 554.852 501.166 555.375C500.727 555.894 500.108 556.517 499.308 557.244L497.61 558.909V558.989H502.496V561H494.201ZM508.529 561.159C507.726 561.159 507.01 561.011 506.381 560.716C505.756 560.42 505.26 560.013 504.892 559.494C504.525 558.975 504.334 558.381 504.318 557.71H506.705C506.731 558.161 506.921 558.527 507.273 558.807C507.625 559.087 508.044 559.227 508.529 559.227C508.915 559.227 509.256 559.142 509.551 558.972C509.851 558.797 510.084 558.557 510.25 558.25C510.421 557.939 510.506 557.583 510.506 557.182C510.506 556.773 510.419 556.413 510.245 556.102C510.074 555.792 509.837 555.549 509.534 555.375C509.231 555.201 508.885 555.112 508.495 555.108C508.154 555.108 507.822 555.178 507.5 555.318C507.182 555.458 506.934 555.65 506.756 555.892L504.568 555.5L505.12 549.364H512.233V551.375H507.148L506.847 554.29H506.915C507.12 554.002 507.428 553.763 507.841 553.574C508.254 553.384 508.716 553.29 509.227 553.29C509.928 553.29 510.553 553.455 511.102 553.784C511.652 554.114 512.085 554.566 512.404 555.142C512.722 555.714 512.879 556.373 512.875 557.119C512.879 557.903 512.697 558.6 512.33 559.21C511.966 559.816 511.457 560.294 510.801 560.642C510.15 560.987 509.392 561.159 508.529 561.159Z" fill="white"/>
<path fill-rule="evenodd" clip-rule="evenodd" d="M11 370.555H98.4143L117.429 389.57L98.4143 408.585V408.587H11V408.585L30.0152 389.57L11 370.555Z" fill="#338492"/>
<path d="M46.5272 396V394.227L50.6692 390.392C51.0215 390.051 51.3169 389.744 51.5556 389.472C51.798 389.199 51.9817 388.932 52.1067 388.67C52.2317 388.405 52.2942 388.119 52.2942 387.812C52.2942 387.472 52.2166 387.178 52.0613 386.932C51.906 386.682 51.6938 386.491 51.4249 386.358C51.156 386.222 50.851 386.153 50.5101 386.153C50.1541 386.153 49.8435 386.225 49.5783 386.369C49.3132 386.513 49.1086 386.72 48.9647 386.989C48.8207 387.258 48.7488 387.578 48.7488 387.949H46.4135C46.4135 387.187 46.5859 386.527 46.9306 385.966C47.2753 385.405 47.7582 384.972 48.3794 384.665C49.0007 384.358 49.7166 384.205 50.5272 384.205C51.3605 384.205 52.0859 384.352 52.7033 384.648C53.3245 384.939 53.8075 385.345 54.1522 385.864C54.4969 386.383 54.6692 386.977 54.6692 387.648C54.6692 388.087 54.5821 388.521 54.4078 388.949C54.2374 389.377 53.9325 389.852 53.4931 390.375C53.0537 390.894 52.4344 391.517 51.6351 392.244L49.9363 393.909V393.989H54.8226V396H46.5272ZM61.1678 396.256C60.1905 396.252 59.3496 396.011 58.6451 395.534C57.9443 395.057 57.4045 394.366 57.0257 393.46C56.6507 392.555 56.4651 391.466 56.4689 390.193C56.4689 388.924 56.6564 387.843 57.0314 386.949C57.4102 386.055 57.95 385.375 58.6507 384.909C59.3553 384.439 60.1943 384.205 61.1678 384.205C62.1413 384.205 62.9784 384.439 63.6792 384.909C64.3837 385.379 64.9254 386.061 65.3042 386.955C65.6829 387.845 65.8704 388.924 65.8667 390.193C65.8667 391.47 65.6773 392.561 65.2985 393.466C64.9235 394.371 64.3856 395.062 63.6848 395.54C62.9841 396.017 62.1451 396.256 61.1678 396.256ZM61.1678 394.216C61.8345 394.216 62.3667 393.881 62.7644 393.21C63.1621 392.54 63.3591 391.534 63.3553 390.193C63.3553 389.311 63.2644 388.576 63.0826 387.989C62.9045 387.402 62.6507 386.96 62.3212 386.665C61.9954 386.369 61.611 386.222 61.1678 386.222C60.5049 386.222 59.9746 386.553 59.5769 387.216C59.1792 387.879 58.9784 388.871 58.9746 390.193C58.9746 391.087 59.0636 391.833 59.2417 392.432C59.4235 393.027 59.6792 393.473 60.0087 393.773C60.3382 394.068 60.7246 394.216 61.1678 394.216ZM67.6209 396V394.227L71.763 390.392C72.1152 390.051 72.4107 389.744 72.6493 389.472C72.8917 389.199 73.0755 388.932 73.2005 388.67C73.3255 388.405 73.388 388.119 73.388 387.812C73.388 387.472 73.3103 387.178 73.155 386.932C72.9997 386.682 72.7876 386.491 72.5186 386.358C72.2497 386.222 71.9448 386.153 71.6039 386.153C71.2478 386.153 70.9372 386.225 70.6721 386.369C70.4069 386.513 70.2024 386.72 70.0584 386.989C69.9145 387.258 69.8425 387.578 69.8425 387.949H67.5073C67.5073 387.187 67.6796 386.527 68.0243 385.966C68.369 385.405 68.852 384.972 69.4732 384.665C70.0944 384.358 70.8103 384.205 71.6209 384.205C72.4542 384.205 73.1796 384.352 73.7971 384.648C74.4183 384.939 74.9012 385.345 75.2459 385.864C75.5906 386.383 75.763 386.977 75.763 387.648C75.763 388.087 75.6758 388.521 75.5016 388.949C75.3311 389.377 75.0262 389.852 74.5868 390.375C74.1474 390.894 73.5281 391.517 72.7289 392.244L71.03 393.909V393.989H75.9164V396H67.6209ZM81.949 396.159C81.146 396.159 80.4301 396.011 79.8013 395.716C79.1763 395.42 78.6801 395.013 78.3127 394.494C77.9453 393.975 77.754 393.381 77.7388 392.71H80.1252C80.1517 393.161 80.3411 393.527 80.6934 393.807C81.0456 394.087 81.4642 394.227 81.949 394.227C82.3354 394.227 82.6763 394.142 82.9718 393.972C83.271 393.797 83.504 393.557 83.6706 393.25C83.8411 392.939 83.9263 392.583 83.9263 392.182C83.9263 391.773 83.8392 391.413 83.665 391.102C83.4945 390.792 83.2578 390.549 82.9547 390.375C82.6517 390.201 82.3051 390.112 81.915 390.108C81.574 390.108 81.2426 390.178 80.9206 390.318C80.6025 390.458 80.3543 390.65 80.1763 390.892L77.9888 390.5L78.54 384.364H85.6536V386.375H80.5684L80.2672 389.29H80.3354C80.54 389.002 80.8487 388.763 81.2615 388.574C81.6744 388.384 82.1365 388.29 82.6479 388.29C83.3487 388.29 83.9737 388.455 84.5229 388.784C85.0721 389.114 85.5059 389.566 85.824 390.142C86.1422 390.714 86.2994 391.373 86.2956 392.119C86.2994 392.903 86.1176 393.6 85.7502 394.21C85.3865 394.816 84.8771 395.294 84.2218 395.642C83.5703 395.987 82.8127 396.159 81.949 396.159Z" fill="white"/>
<path fill-rule="evenodd" clip-rule="evenodd" d="M550.429 201H463.015L444 220.015L463.015 239.03V239.033H550.429V239.03L531.414 220.015L550.429 201Z" fill="#21206C"/>
<path d="M479.107 225.957V224.184L483.249 220.349C483.601 220.008 483.897 219.701 484.135 219.429C484.378 219.156 484.561 218.889 484.686 218.627C484.811 218.362 484.874 218.076 484.874 217.77C484.874 217.429 484.796 217.135 484.641 216.889C484.486 216.639 484.273 216.448 484.004 216.315C483.736 216.179 483.431 216.11 483.09 216.11C482.734 216.11 482.423 216.182 482.158 216.326C481.893 216.47 481.688 216.677 481.544 216.946C481.4 217.215 481.328 217.535 481.328 217.906H478.993C478.993 217.145 479.165 216.484 479.51 215.923C479.855 215.362 480.338 214.929 480.959 214.622C481.58 214.315 482.296 214.162 483.107 214.162C483.94 214.162 484.665 214.309 485.283 214.605C485.904 214.896 486.387 215.302 486.732 215.821C487.076 216.34 487.249 216.934 487.249 217.605C487.249 218.044 487.162 218.478 486.987 218.906C486.817 219.334 486.512 219.809 486.073 220.332C485.633 220.851 485.014 221.474 484.215 222.201L482.516 223.866V223.946H487.402V225.957H479.107ZM493.747 226.213C492.77 226.209 491.929 225.968 491.225 225.491C490.524 225.014 489.984 224.323 489.605 223.417C489.23 222.512 489.045 221.423 489.049 220.15C489.049 218.881 489.236 217.8 489.611 216.906C489.99 216.012 490.53 215.332 491.23 214.866C491.935 214.396 492.774 214.162 493.747 214.162C494.721 214.162 495.558 214.396 496.259 214.866C496.963 215.336 497.505 216.018 497.884 216.912C498.263 217.802 498.45 218.881 498.446 220.15C498.446 221.427 498.257 222.518 497.878 223.423C497.503 224.328 496.965 225.02 496.264 225.497C495.564 225.974 494.725 226.213 493.747 226.213ZM493.747 224.173C494.414 224.173 494.946 223.838 495.344 223.167C495.742 222.497 495.939 221.491 495.935 220.15C495.935 219.268 495.844 218.533 495.662 217.946C495.484 217.359 495.23 216.917 494.901 216.622C494.575 216.326 494.191 216.179 493.747 216.179C493.085 216.179 492.554 216.51 492.156 217.173C491.759 217.836 491.558 218.828 491.554 220.15C491.554 221.044 491.643 221.79 491.821 222.389C492.003 222.984 492.259 223.431 492.588 223.73C492.918 224.025 493.304 224.173 493.747 224.173ZM500.201 225.957V224.184L504.343 220.349C504.695 220.008 504.99 219.701 505.229 219.429C505.471 219.156 505.655 218.889 505.78 218.627C505.905 218.362 505.968 218.076 505.968 217.77C505.968 217.429 505.89 217.135 505.735 216.889C505.579 216.639 505.367 216.448 505.098 216.315C504.829 216.179 504.524 216.11 504.183 216.11C503.827 216.11 503.517 216.182 503.252 216.326C502.986 216.47 502.782 216.677 502.638 216.946C502.494 217.215 502.422 217.535 502.422 217.906H500.087C500.087 217.145 500.259 216.484 500.604 215.923C500.949 215.362 501.432 214.929 502.053 214.622C502.674 214.315 503.39 214.162 504.201 214.162C505.034 214.162 505.759 214.309 506.377 214.605C506.998 214.896 507.481 215.302 507.826 215.821C508.17 216.34 508.343 216.934 508.343 217.605C508.343 218.044 508.255 218.478 508.081 218.906C507.911 219.334 507.606 219.809 507.166 220.332C506.727 220.851 506.108 221.474 505.308 222.201L503.61 223.866V223.946H508.496V225.957H500.201ZM509.852 223.912V221.974L514.71 214.321H516.381V217.002H515.392L512.33 221.849V221.94H519.233V223.912H509.852ZM515.438 225.957V223.321L515.483 222.463V214.321H517.79V225.957H515.438Z" fill="white"/>
<path fill-rule="evenodd" clip-rule="evenodd" d="M0 40H87.4143L106.429 59.0152L87.4143 78.0304V78.0326H0V78.0304L19.0152 59.0152L0 40Z" fill="#9935AB"/>
<path d="M33.9432 65V63.2273L38.0852 59.392C38.4375 59.0511 38.733 58.7443 38.9716 58.4716C39.214 58.1989 39.3977 57.9318 39.5227 57.6705C39.6477 57.4053 39.7102 57.1193 39.7102 56.8125C39.7102 56.4716 39.6326 56.178 39.4773 55.9318C39.322 55.6818 39.1098 55.4905 38.8409 55.358C38.572 55.2216 38.267 55.1534 37.9261 55.1534C37.5701 55.1534 37.2595 55.2254 36.9943 55.3693C36.7292 55.5133 36.5246 55.7197 36.3807 55.9886C36.2367 56.2576 36.1648 56.5777 36.1648 56.9489H33.8295C33.8295 56.1875 34.0019 55.5265 34.3466 54.9659C34.6913 54.4053 35.1742 53.9716 35.7955 53.6648C36.4167 53.358 37.1326 53.2045 37.9432 53.2045C38.7765 53.2045 39.5019 53.3523 40.1193 53.6477C40.7405 53.9394 41.2235 54.3447 41.5682 54.8636C41.9129 55.3826 42.0852 55.9773 42.0852 56.6477C42.0852 57.0871 41.9981 57.5208 41.8239 57.9489C41.6534 58.3769 41.3485 58.8523 40.9091 59.375C40.4697 59.8939 39.8504 60.517 39.0511 61.2443L37.3523 62.9091V62.9886H42.2386V65H33.9432ZM48.5838 65.2557C47.6065 65.2519 46.7656 65.0114 46.0611 64.5341C45.3603 64.0568 44.8205 63.3655 44.4418 62.4602C44.0668 61.5549 43.8812 60.4659 43.8849 59.1932C43.8849 57.9242 44.0724 56.8428 44.4474 55.9489C44.8262 55.0549 45.366 54.375 46.0668 53.9091C46.7713 53.4394 47.6103 53.2045 48.5838 53.2045C49.5573 53.2045 50.3944 53.4394 51.0952 53.9091C51.7997 54.3788 52.3414 55.0606 52.7202 55.9545C53.099 56.8447 53.2865 57.9242 53.2827 59.1932C53.2827 60.4697 53.0933 61.5606 52.7145 62.4659C52.3395 63.3712 51.8016 64.0625 51.1009 64.5398C50.4001 65.017 49.5611 65.2557 48.5838 65.2557ZM48.5838 63.2159C49.2505 63.2159 49.7827 62.8807 50.1804 62.2102C50.5781 61.5398 50.7751 60.5341 50.7713 59.1932C50.7713 58.3106 50.6804 57.5758 50.4986 56.9886C50.3205 56.4015 50.0668 55.9602 49.7372 55.6648C49.4115 55.3693 49.027 55.2216 48.5838 55.2216C47.9209 55.2216 47.3906 55.553 46.9929 56.2159C46.5952 56.8788 46.3944 57.8712 46.3906 59.1932C46.3906 60.0871 46.4796 60.8333 46.6577 61.4318C46.8395 62.0265 47.0952 62.4735 47.4247 62.7727C47.7543 63.0682 48.1406 63.2159 48.5838 63.2159ZM55.0369 65V63.2273L59.179 59.392C59.5313 59.0511 59.8267 58.7443 60.0653 58.4716C60.3078 58.1989 60.4915 57.9318 60.6165 57.6705C60.7415 57.4053 60.804 57.1193 60.804 56.8125C60.804 56.4716 60.7263 56.178 60.571 55.9318C60.4157 55.6818 60.2036 55.4905 59.9347 55.358C59.6657 55.2216 59.3608 55.1534 59.0199 55.1534C58.6638 55.1534 58.3532 55.2254 58.0881 55.3693C57.8229 55.5133 57.6184 55.7197 57.4744 55.9886C57.3305 56.2576 57.2585 56.5777 57.2585 56.9489H54.9233C54.9233 56.1875 55.0956 55.5265 55.4403 54.9659C55.785 54.4053 56.268 53.9716 56.8892 53.6648C57.5104 53.358 58.2263 53.2045 59.0369 53.2045C59.8703 53.2045 60.5956 53.3523 61.2131 53.6477C61.8343 53.9394 62.3172 54.3447 62.6619 54.8636C63.0066 55.3826 63.179 55.9773 63.179 56.6477C63.179 57.0871 63.0919 57.5208 62.9176 57.9489C62.7472 58.3769 62.4422 58.8523 62.0028 59.375C61.5634 59.8939 60.9441 60.517 60.1449 61.2443L58.446 62.9091V62.9886H63.3324V65H55.0369ZM64.6889 62.9545V61.017L69.5469 53.3636H71.2173V56.0455H70.2287L67.1662 60.892V60.983H74.0696V62.9545H64.6889ZM70.2741 65V62.3636L70.3196 61.5057V53.3636H72.6264V65H70.2741Z" fill="white"/>
<path d="M193.387 447.725C193.387 507.018 241.454 555.085 300.748 555.085" stroke="#4E5C61" stroke-width="1.1999" stroke-miterlimit="22.9256" stroke-linecap="round" stroke-linejoin="round"/>
<path d="M359.291 282.211C359.291 341.504 311.226 389.572 251.93 389.572" stroke="#4E5C61" stroke-width="1.1999" stroke-miterlimit="22.9256" stroke-linecap="round" stroke-linejoin="round"/>
<path d="M193.387 116.697C193.387 175.991 241.454 224.058 300.748 224.058" stroke="#4E5C61" stroke-width="1.1999" stroke-miterlimit="22.9256" stroke-linecap="round" stroke-linejoin="round"/>
<path fill-rule="evenodd" clip-rule="evenodd" d="M359.291 613.631C391.535 613.631 417.833 587.332 417.833 555.086C417.833 522.841 391.535 496.543 359.291 496.543C327.047 496.543 300.748 522.841 300.748 555.086C300.748 587.332 327.047 613.631 359.291 613.631Z" fill="white"/>
<path fill-rule="evenodd" clip-rule="evenodd" d="M193.388 448.117C225.633 448.117 251.931 421.816 251.931 389.572C251.931 357.328 225.633 331.029 193.388 331.029C161.144 331.029 134.846 357.328 134.846 389.572C134.846 421.816 161.144 448.117 193.388 448.117Z" fill="white"/>
<path d="M417.721 227.131C419.425 194.843 394.633 167.287 362.346 165.583C330.059 163.879 302.504 188.673 300.8 220.961C299.096 253.249 323.888 280.805 356.175 282.509C388.462 284.213 416.017 259.42 417.721 227.131Z" fill="white"/>
<path fill-rule="evenodd" clip-rule="evenodd" d="M193.388 117.088C225.633 117.088 251.931 90.789 251.931 58.5427C251.931 26.2985 225.633 0 193.388 0C161.144 0 134.846 26.2985 134.846 58.5427C134.846 90.789 161.144 117.088 193.388 117.088Z" fill="white"/>
<path fill-rule="evenodd" clip-rule="evenodd" d="M193.388 106.525C219.816 106.525 241.371 84.9711 241.371 58.5429C241.371 32.1168 219.816 10.5625 193.388 10.5625C166.96 10.5625 145.408 32.1168 145.408 58.5429C145.408 84.9711 166.962 106.525 193.388 106.525Z" fill="#9935AB"/>
<path d="M359.29 272.037C385.789 272.037 407.271 250.555 407.271 224.056C407.271 197.558 385.789 176.076 359.29 176.076C332.792 176.076 311.31 197.558 311.31 224.056C311.31 250.555 332.792 272.037 359.29 272.037Z" fill="#FFE817"/>
<path fill-rule="evenodd" clip-rule="evenodd" d="M193.388 437.553C219.816 437.553 241.371 415.998 241.371 389.57C241.371 363.144 219.816 341.59 193.388 341.59C166.96 341.59 145.408 363.144 145.408 389.57C145.408 415.996 166.962 437.553 193.388 437.553Z" fill="#8BEEFF"/>
<path d="M359.29 603.066C385.789 603.066 407.271 581.585 407.271 555.086C407.271 528.587 385.789 507.105 359.29 507.105C332.792 507.105 311.31 528.587 311.31 555.086C311.31 581.585 332.792 603.066 359.29 603.066Z" fill="#955FFF"/>
<path opacity="0.2" fill-rule="evenodd" clip-rule="evenodd" d="M193.388 10.5625C208.616 10.5625 222.187 17.6586 230.978 28.725C223.297 23.5023 214.024 20.4508 204.035 20.4508C177.537 20.4508 156.053 41.9327 156.053 68.4332C156.053 79.7037 159.94 90.064 166.445 98.2532C153.748 89.6196 145.408 75.0594 145.408 58.5471C145.408 32.0445 166.89 10.5625 193.388 10.5625Z" fill="black"/>
<path opacity="0.2" fill-rule="evenodd" clip-rule="evenodd" d="M359.29 176.076C374.518 176.076 388.09 183.172 396.881 194.237C389.2 189.014 379.926 185.962 369.938 185.962C343.439 185.962 321.955 207.444 321.955 233.945C321.955 245.215 325.843 255.576 332.348 263.765C319.65 255.133 311.31 240.571 311.31 224.059C311.31 197.558 332.792 176.076 359.29 176.076Z" fill="black"/>
<path opacity="0.2" fill-rule="evenodd" clip-rule="evenodd" d="M193.388 341.59C208.616 341.59 222.187 348.686 230.978 359.75C223.297 354.527 214.024 351.476 204.035 351.476C177.537 351.476 156.053 372.958 156.053 399.458C156.053 410.729 159.94 421.089 166.445 429.278C153.748 420.645 145.408 406.085 145.408 389.572C145.408 363.072 166.89 341.59 193.388 341.59Z" fill="black"/>
<path opacity="0.2" fill-rule="evenodd" clip-rule="evenodd" d="M359.29 507.105C374.518 507.105 388.09 514.202 396.881 525.266C389.2 520.043 379.926 516.992 369.938 516.992C343.439 516.992 321.955 538.474 321.955 564.974C321.955 576.245 325.843 586.605 332.348 594.794C319.65 586.163 311.31 571.6 311.31 555.088C311.31 528.587 332.792 507.105 359.29 507.105Z" fill="black"/>
<path d="M191.126 56.1729V60.7188C191.126 62.7969 190.916 64.5719 190.495 66.0439C190.075 67.516 189.468 68.722 188.677 69.6621C187.885 70.5898 186.939 71.2764 185.838 71.7217C184.737 72.1546 183.512 72.3711 182.164 72.3711C181.088 72.3711 180.086 72.235 179.158 71.9629C178.23 71.6784 177.396 71.2454 176.653 70.6641C175.924 70.0703 175.293 69.3158 174.761 68.4004C174.241 67.485 173.839 66.3903 173.555 65.1162C173.283 63.8421 173.146 62.3763 173.146 60.7188V56.1729C173.146 54.0947 173.357 52.3258 173.777 50.8662C174.21 49.4066 174.823 48.2129 175.614 47.2852C176.406 46.3574 177.352 45.6833 178.453 45.2627C179.554 44.8298 180.779 44.6133 182.127 44.6133C183.215 44.6133 184.217 44.7493 185.133 45.0215C186.061 45.2936 186.889 45.7204 187.619 46.3018C188.361 46.8708 188.992 47.613 189.512 48.5283C190.031 49.4313 190.427 50.5199 190.699 51.7939C190.984 53.0557 191.126 54.5153 191.126 56.1729ZM186.228 61.3867V55.4863C186.228 54.4473 186.166 53.5443 186.042 52.7773C185.931 51.998 185.764 51.3363 185.541 50.792C185.318 50.2477 185.04 49.8086 184.706 49.4746C184.372 49.1283 183.989 48.8747 183.556 48.7139C183.123 48.5531 182.646 48.4727 182.127 48.4727C181.484 48.4727 180.909 48.6025 180.401 48.8623C179.894 49.1097 179.467 49.5055 179.121 50.0498C178.775 50.5941 178.509 51.3177 178.323 52.2207C178.15 53.1113 178.063 54.1999 178.063 55.4863V61.3867C178.063 62.4258 178.119 63.335 178.23 64.1143C178.354 64.8936 178.527 65.5615 178.75 66.1182C178.985 66.6748 179.263 67.1325 179.585 67.4912C179.919 67.8376 180.302 68.0973 180.735 68.2705C181.168 68.4313 181.645 68.5117 182.164 68.5117C182.82 68.5117 183.395 68.3818 183.89 68.1221C184.397 67.8623 184.824 67.4541 185.17 66.8975C185.516 66.3285 185.776 65.5924 185.949 64.6895C186.135 63.7741 186.228 62.6732 186.228 61.3867ZM207.565 44.9102V72H202.648V50.6436L196.136 52.7959V48.8252L207.009 44.9102H207.565Z" fill="white"/>
<path d="M357.126 221.173V225.719C357.126 227.797 356.916 229.572 356.495 231.044C356.075 232.516 355.468 233.722 354.677 234.662C353.885 235.59 352.939 236.276 351.838 236.722C350.737 237.155 349.512 237.371 348.164 237.371C347.088 237.371 346.086 237.235 345.158 236.963C344.23 236.678 343.396 236.245 342.653 235.664C341.924 235.07 341.293 234.316 340.761 233.4C340.241 232.485 339.839 231.39 339.555 230.116C339.283 228.842 339.146 227.376 339.146 225.719V221.173C339.146 219.095 339.357 217.326 339.777 215.866C340.21 214.407 340.823 213.213 341.614 212.285C342.406 211.357 343.352 210.683 344.453 210.263C345.554 209.83 346.779 209.613 348.127 209.613C349.215 209.613 350.217 209.749 351.133 210.021C352.061 210.294 352.889 210.72 353.619 211.302C354.361 211.871 354.992 212.613 355.512 213.528C356.031 214.431 356.427 215.52 356.699 216.794C356.984 218.056 357.126 219.515 357.126 221.173ZM352.228 226.387V220.486C352.228 219.447 352.166 218.544 352.042 217.777C351.931 216.998 351.764 216.336 351.541 215.792C351.318 215.248 351.04 214.809 350.706 214.475C350.372 214.128 349.989 213.875 349.556 213.714C349.123 213.553 348.646 213.473 348.127 213.473C347.484 213.473 346.909 213.603 346.401 213.862C345.894 214.11 345.467 214.506 345.121 215.05C344.775 215.594 344.509 216.318 344.323 217.221C344.15 218.111 344.063 219.2 344.063 220.486V226.387C344.063 227.426 344.119 228.335 344.23 229.114C344.354 229.894 344.527 230.562 344.75 231.118C344.985 231.675 345.263 232.132 345.585 232.491C345.919 232.838 346.302 233.097 346.735 233.271C347.168 233.431 347.645 233.512 348.164 233.512C348.82 233.512 349.395 233.382 349.89 233.122C350.397 232.862 350.824 232.454 351.17 231.897C351.516 231.328 351.776 230.592 351.949 229.689C352.135 228.774 352.228 227.673 352.228 226.387ZM379.243 233.141V237H360.948V233.697L369.725 224.216C370.64 223.177 371.364 222.274 371.896 221.507C372.427 220.74 372.805 220.047 373.027 219.429C373.262 218.798 373.38 218.198 373.38 217.629C373.38 216.8 373.231 216.076 372.935 215.458C372.638 214.827 372.205 214.339 371.636 213.992C371.079 213.646 370.393 213.473 369.576 213.473C368.673 213.473 367.9 213.683 367.257 214.104C366.626 214.512 366.144 215.081 365.81 215.811C365.488 216.54 365.327 217.375 365.327 218.315H360.41C360.41 216.72 360.781 215.266 361.523 213.955C362.266 212.632 363.329 211.574 364.715 210.782C366.1 209.991 367.745 209.595 369.65 209.595C371.506 209.595 373.077 209.904 374.363 210.522C375.65 211.129 376.627 211.994 377.295 213.12C377.963 214.246 378.297 215.588 378.297 217.146C378.297 218.012 378.155 218.866 377.87 219.707C377.586 220.548 377.184 221.383 376.664 222.212C376.157 223.028 375.551 223.857 374.846 224.698C374.141 225.539 373.355 226.399 372.489 227.277L367.22 233.141H379.243Z" fill="white"/>
<path d="M191.126 387.173V391.719C191.126 393.797 190.916 395.572 190.495 397.044C190.075 398.516 189.468 399.722 188.677 400.662C187.885 401.59 186.939 402.276 185.838 402.722C184.737 403.155 183.512 403.371 182.164 403.371C181.088 403.371 180.086 403.235 179.158 402.963C178.23 402.678 177.396 402.245 176.653 401.664C175.924 401.07 175.293 400.316 174.761 399.4C174.241 398.485 173.839 397.39 173.555 396.116C173.283 394.842 173.146 393.376 173.146 391.719V387.173C173.146 385.095 173.357 383.326 173.777 381.866C174.21 380.407 174.823 379.213 175.614 378.285C176.406 377.357 177.352 376.683 178.453 376.263C179.554 375.83 180.779 375.613 182.127 375.613C183.215 375.613 184.217 375.749 185.133 376.021C186.061 376.294 186.889 376.72 187.619 377.302C188.361 377.871 188.992 378.613 189.512 379.528C190.031 380.431 190.427 381.52 190.699 382.794C190.984 384.056 191.126 385.515 191.126 387.173ZM186.228 392.387V386.486C186.228 385.447 186.166 384.544 186.042 383.777C185.931 382.998 185.764 382.336 185.541 381.792C185.318 381.248 185.04 380.809 184.706 380.475C184.372 380.128 183.989 379.875 183.556 379.714C183.123 379.553 182.646 379.473 182.127 379.473C181.484 379.473 180.909 379.603 180.401 379.862C179.894 380.11 179.467 380.506 179.121 381.05C178.775 381.594 178.509 382.318 178.323 383.221C178.15 384.111 178.063 385.2 178.063 386.486V392.387C178.063 393.426 178.119 394.335 178.23 395.114C178.354 395.894 178.527 396.562 178.75 397.118C178.985 397.675 179.263 398.132 179.585 398.491C179.919 398.838 180.302 399.097 180.735 399.271C181.168 399.431 181.645 399.512 182.164 399.512C182.82 399.512 183.395 399.382 183.89 399.122C184.397 398.862 184.824 398.454 185.17 397.897C185.516 397.328 185.776 396.592 185.949 395.689C186.135 394.774 186.228 393.673 186.228 392.387ZM200.311 387.321H203.075C204.052 387.321 204.856 387.154 205.487 386.82C206.131 386.474 206.607 386.004 206.916 385.41C207.238 384.804 207.398 384.105 207.398 383.313C207.398 382.534 207.256 381.86 206.972 381.291C206.687 380.71 206.254 380.264 205.673 379.955C205.104 379.633 204.374 379.473 203.483 379.473C202.766 379.473 202.104 379.615 201.498 379.899C200.904 380.184 200.428 380.592 200.069 381.124C199.723 381.644 199.55 382.268 199.55 382.998H194.633C194.633 381.538 195.016 380.258 195.783 379.157C196.562 378.044 197.614 377.172 198.938 376.541C200.261 375.91 201.739 375.595 203.372 375.595C205.153 375.595 206.712 375.892 208.048 376.485C209.396 377.067 210.441 377.926 211.184 379.064C211.938 380.202 212.315 381.613 212.315 383.295C212.315 384.099 212.124 384.903 211.74 385.707C211.369 386.499 210.819 387.216 210.089 387.859C209.371 388.49 208.487 389.004 207.436 389.399C206.396 389.783 205.203 389.975 203.854 389.975H200.311V387.321ZM200.311 391.106V388.49H203.854C205.376 388.49 206.693 388.67 207.807 389.028C208.932 389.375 209.86 389.869 210.59 390.513C211.32 391.144 211.858 391.88 212.204 392.721C212.563 393.562 212.742 394.465 212.742 395.43C212.742 396.691 212.507 397.817 212.037 398.807C211.567 399.784 210.905 400.613 210.052 401.293C209.211 401.973 208.221 402.493 207.083 402.852C205.945 403.198 204.714 403.371 203.391 403.371C202.24 403.371 201.121 403.216 200.032 402.907C198.956 402.586 197.985 402.109 197.119 401.479C196.253 400.835 195.567 400.031 195.06 399.066C194.552 398.089 194.299 396.957 194.299 395.671H199.216C199.216 396.413 199.395 397.075 199.754 397.656C200.125 398.238 200.632 398.695 201.275 399.029C201.931 399.351 202.667 399.512 203.483 399.512C204.386 399.512 205.16 399.351 205.803 399.029C206.458 398.695 206.959 398.225 207.306 397.619C207.652 397.001 207.825 396.265 207.825 395.411C207.825 394.397 207.633 393.574 207.25 392.943C206.867 392.312 206.316 391.849 205.599 391.552C204.894 391.255 204.052 391.106 203.075 391.106H200.311Z" fill="white"/>
<path d="M357.126 552.173V556.719C357.126 558.797 356.916 560.572 356.495 562.044C356.075 563.516 355.468 564.722 354.677 565.662C353.885 566.59 352.939 567.276 351.838 567.722C350.737 568.155 349.512 568.371 348.164 568.371C347.088 568.371 346.086 568.235 345.158 567.963C344.23 567.678 343.396 567.245 342.653 566.664C341.924 566.07 341.293 565.316 340.761 564.4C340.241 563.485 339.839 562.39 339.555 561.116C339.283 559.842 339.146 558.376 339.146 556.719V552.173C339.146 550.095 339.357 548.326 339.777 546.866C340.21 545.407 340.823 544.213 341.614 543.285C342.406 542.357 343.352 541.683 344.453 541.263C345.554 540.83 346.779 540.613 348.127 540.613C349.215 540.613 350.217 540.749 351.133 541.021C352.061 541.294 352.889 541.72 353.619 542.302C354.361 542.871 354.992 543.613 355.512 544.528C356.031 545.431 356.427 546.52 356.699 547.794C356.984 549.056 357.126 550.515 357.126 552.173ZM352.228 557.387V551.486C352.228 550.447 352.166 549.544 352.042 548.777C351.931 547.998 351.764 547.336 351.541 546.792C351.318 546.248 351.04 545.809 350.706 545.475C350.372 545.128 349.989 544.875 349.556 544.714C349.123 544.553 348.646 544.473 348.127 544.473C347.484 544.473 346.909 544.603 346.401 544.862C345.894 545.11 345.467 545.506 345.121 546.05C344.775 546.594 344.509 547.318 344.323 548.221C344.15 549.111 344.063 550.2 344.063 551.486V557.387C344.063 558.426 344.119 559.335 344.23 560.114C344.354 560.894 344.527 561.562 344.75 562.118C344.985 562.675 345.263 563.132 345.585 563.491C345.919 563.838 346.302 564.097 346.735 564.271C347.168 564.431 347.645 564.512 348.164 564.512C348.82 564.512 349.395 564.382 349.89 564.122C350.397 563.862 350.824 563.454 351.17 562.897C351.516 562.328 351.776 561.592 351.949 560.689C352.135 559.774 352.228 558.673 352.228 557.387ZM379.707 558.147V562.007H360.243L360.039 559.038L371.487 540.984H375.402L371.172 548.165L365.03 558.147H379.707ZM376.497 540.984V568H371.58V540.984H376.497Z" fill="white"/>
</svg>
