<svg width="212" height="50" viewBox="0 0 212 50" fill="none" xmlns="http://www.w3.org/2000/svg">
<path d="M10.3177 23.586C10.3177 22.4429 11.2567 21.5039 12.3998 21.5039H15.9108C17.0539 21.5039 18.0337 22.4429 18.0337 23.6268V36.8543C18.442 36.7318 18.9319 36.6093 19.5035 36.4869C20.2791 36.2827 20.8507 35.5887 20.8507 34.7722V18.3604C20.8507 17.2172 21.7897 16.2374 22.9736 16.2374H26.4846C27.6277 16.2374 28.6075 17.1764 28.6075 18.3604V33.5883C28.6075 33.5883 29.4649 33.2208 30.3222 32.8534C30.9754 32.5676 31.3837 31.9552 31.3837 31.2204V13.053C31.3837 11.9099 32.3227 10.9301 33.4658 10.9301H36.9768C38.1199 10.9301 39.0589 11.8691 39.0589 13.053V27.9952C42.0799 25.7906 45.1827 23.1369 47.6322 19.9525C48.3671 19.0136 48.5712 17.7888 48.1629 16.6457C43.6721 3.74482 29.5465 -3.11385 16.6457 1.37695C3.74482 5.86775 -3.11385 20.0342 1.37695 32.935C1.86685 34.4048 2.52007 35.7928 3.29575 37.1401C3.90813 38.2015 5.05124 38.8139 6.27601 38.6914C6.92921 38.6506 7.74572 38.569 8.72553 38.4465C9.6237 38.3648 10.2769 37.5892 10.2769 36.691L10.3177 23.586Z" fill="white"/>
<path d="M10.2363 44.7744C21.3 52.8171 36.7729 50.3675 44.8155 39.3038C47.8774 35.058 49.5513 29.9548 49.5513 24.7291C49.5513 24.1576 49.5104 23.586 49.4696 23.0145C40.4472 36.5685 23.7496 42.8556 10.2363 44.7744Z" fill="#F0B90C"/>
<path opacity="0.8" d="M63.3093 41.3859H59.8392L59.2268 43.1414H57.3896L60.574 34.6089H62.5336L65.718 43.1414H63.8809L63.3093 41.3859ZM62.8603 40.0795L61.5947 36.446L60.3291 40.0795H62.8603ZM74.618 36.2419C75.1487 36.2419 75.6795 36.3643 76.1694 36.6501C76.6184 36.9359 77.0267 37.3442 77.2308 37.8749C77.5166 38.4464 77.6391 39.0997 77.5983 39.712C77.5983 40.3652 77.4758 40.9776 77.2308 41.5492C76.9859 42.0391 76.6184 42.4473 76.1694 42.7739C75.7203 43.0597 75.1895 43.1822 74.618 43.1822C74.0873 43.1822 73.5974 43.0597 73.1483 42.7739C72.74 42.529 72.4542 42.1207 72.2909 41.6717V46.3258H70.5763V36.3235H72.2909V37.7524C72.4542 37.3033 72.74 36.9359 73.1483 36.6501C73.5974 36.4052 74.0873 36.2419 74.618 36.2419ZM74.0873 37.7524C73.5974 37.7524 73.1483 37.9157 72.7808 38.2831C72.4134 38.6914 72.2501 39.1813 72.2909 39.712C72.2501 40.2428 72.4542 40.7327 72.7808 41.1409C73.1074 41.5084 73.5974 41.6717 74.0873 41.6717C74.5772 41.7125 75.0671 41.5084 75.3937 41.1409C75.7203 40.7327 75.9244 40.2428 75.8836 39.712C75.9244 39.1813 75.7203 38.6506 75.3937 38.2831C75.0262 37.9565 74.5772 37.7524 74.0873 37.7524ZM81.1909 37.6299C81.4359 37.2217 81.7625 36.8542 82.2115 36.6093C82.6198 36.3643 83.1097 36.2419 83.5996 36.2419V38.079H83.1097C81.8441 38.079 81.1909 38.6506 81.1909 39.8345V43.1005H79.4762V36.3235H81.1909V37.6299ZM88.2945 36.2419C88.9069 36.2419 89.5193 36.3643 90.0908 36.6501C90.6216 36.9359 91.0298 37.3442 91.3156 37.8749C91.6422 38.4464 91.7647 39.0997 91.7647 39.712C91.7647 40.3652 91.6422 40.9776 91.3156 41.5492C91.0298 42.0799 90.5808 42.4882 90.0908 42.7739C89.5601 43.0597 88.9477 43.223 88.2945 43.1822C87.6821 43.1822 87.0698 43.0597 86.4982 42.7739C85.9675 42.4882 85.5592 42.0799 85.2734 41.5492C84.9468 40.9776 84.8244 40.3652 84.8244 39.712C84.8244 39.0588 84.9468 38.4056 85.2734 37.8749C85.5592 37.3442 86.0083 36.9359 86.4982 36.6501C87.0698 36.4052 87.6821 36.2419 88.2945 36.2419ZM88.2945 37.7524C87.8454 37.7524 87.3964 37.9157 87.0698 38.2423C86.7023 38.6506 86.539 39.1813 86.5799 39.712C86.539 40.2428 86.7432 40.7735 87.0698 41.1818C87.3964 41.5084 87.8454 41.7125 88.2945 41.6717C88.7436 41.6717 89.1927 41.5084 89.5193 41.1818C89.8867 40.7735 90.05 40.2428 90.0092 39.712C90.05 39.1813 89.8459 38.6506 89.5193 38.2423C89.1927 37.9157 88.7436 37.7524 88.2945 37.7524ZM96.2555 36.2419C96.7862 36.2419 97.2761 36.3643 97.7252 36.6501C98.1335 36.8951 98.4193 37.3033 98.5826 37.7524V34.0781H100.297V43.1414H98.5826V41.7125C98.4193 42.1616 98.0926 42.529 97.7252 42.8148C97.2761 43.1006 96.7862 43.223 96.2555 43.223C95.7248 43.223 95.194 43.1006 94.7041 42.8148C94.2551 42.529 93.8468 42.1207 93.6427 41.59C93.3569 41.0185 93.2344 40.3652 93.2752 39.7529C93.2752 39.0997 93.3977 38.4873 93.6427 37.9157C93.8876 37.4258 94.2551 37.0176 94.7041 36.691C95.194 36.4052 95.7248 36.2419 96.2555 36.2419ZM96.7862 37.7524C96.2963 37.7116 95.8064 37.9157 95.4798 38.2831C95.1532 38.6914 94.9491 39.1813 94.9899 39.712C94.9491 40.2428 95.1532 40.7735 95.4798 41.1409C95.8064 41.5084 96.2963 41.6717 96.7862 41.6717C97.2761 41.6717 97.7252 41.5084 98.0926 41.1409C98.4601 40.7327 98.6234 40.2428 98.5826 39.712C98.6234 39.1813 98.4192 38.6506 98.0926 38.2831C97.766 37.9565 97.2761 37.7524 96.7862 37.7524ZM108.993 36.3643V43.1414H107.278V41.7533C107.115 42.2024 106.788 42.5698 106.38 42.8148C105.931 43.0597 105.441 43.223 104.951 43.1822C104.257 43.223 103.563 42.9373 103.073 42.4065C102.583 41.7941 102.339 41.0184 102.379 40.2428V36.2827H104.094V40.0386C104.053 40.4877 104.216 40.9368 104.502 41.3042C104.788 41.59 105.196 41.7533 105.645 41.7533C106.094 41.7941 106.544 41.59 106.829 41.2634C107.156 40.896 107.319 40.4061 107.278 39.8753V36.2827L108.993 36.3643ZM114.219 36.2419C114.994 36.201 115.77 36.446 116.423 36.9359C117.036 37.4258 117.403 38.1198 117.526 38.8547H115.688C115.648 38.5281 115.443 38.2015 115.199 37.9974C114.913 37.7932 114.545 37.6708 114.219 37.6708C113.77 37.6708 113.361 37.8341 113.076 38.1607C112.749 38.5689 112.586 39.0996 112.627 39.6304C112.586 40.1611 112.749 40.6918 113.076 41.1001C113.361 41.4267 113.77 41.6308 114.219 41.59C114.586 41.59 114.913 41.5084 115.199 41.2634C115.443 41.0593 115.648 40.7327 115.688 40.4061H117.526C117.403 41.1818 117.036 41.835 116.423 42.3249C115.811 42.8148 115.035 43.0597 114.219 43.0189C113.606 43.0189 112.994 42.8964 112.463 42.6106C111.973 42.3249 111.524 41.9166 111.279 41.3859C110.993 40.8143 110.83 40.1611 110.871 39.5487C110.871 38.8955 110.993 38.2831 111.279 37.7116C111.565 37.1809 111.973 36.7726 112.463 36.4868C112.994 36.4052 113.606 36.2419 114.219 36.2419ZM122.955 41.6308V43.1005H122.057C121.445 43.1414 120.792 42.9372 120.302 42.5698C119.893 42.2024 119.689 41.59 119.689 40.7327V37.7932H118.75V36.3235H119.689V34.6497H121.404V36.3235H122.915V37.7932H121.404V40.7735C121.363 41.0185 121.445 41.2634 121.608 41.4675C121.812 41.6308 122.016 41.6717 122.261 41.6717H122.955V41.6308ZM131.243 36.2419C131.855 36.2419 132.468 36.3643 133.039 36.6501C133.57 36.9359 133.978 37.3442 134.264 37.8749C134.591 38.4464 134.713 39.0997 134.713 39.712C134.713 40.3652 134.591 40.9776 134.264 41.5492C133.978 42.0799 133.529 42.4882 133.039 42.7739C132.509 43.0597 131.896 43.223 131.243 43.1822C130.631 43.1822 130.018 43.0597 129.447 42.7739C128.916 42.4882 128.508 42.0799 128.222 41.5492C127.895 40.9776 127.773 40.3652 127.773 39.712C127.773 39.0588 127.895 38.4056 128.222 37.8749C128.508 37.3442 128.957 36.9359 129.447 36.6501C129.977 36.4052 130.59 36.2419 131.243 36.2419ZM131.243 37.7524C130.794 37.7524 130.345 37.9157 130.018 38.2423C129.651 38.6506 129.487 39.1813 129.528 39.712C129.487 40.2428 129.692 40.7735 130.018 41.1818C130.345 41.5084 130.794 41.7125 131.243 41.6717C131.692 41.6717 132.141 41.5084 132.468 41.1818C132.835 40.7735 132.998 40.2428 132.958 39.712C132.998 39.1813 132.794 38.6506 132.468 38.2423C132.141 37.9157 131.692 37.7524 131.243 37.7524ZM139.898 35.1804C139.531 35.0988 139.163 35.1804 138.836 35.3845C138.592 35.6295 138.51 35.9969 138.51 36.3235H139.898V37.7932H138.51V43.1005H136.795V37.7932H135.938V36.3235H136.795V36.1602C136.754 35.4662 136.999 34.7722 137.489 34.2823C138.061 33.7923 138.796 33.5882 139.531 33.629C139.694 33.629 139.816 33.629 139.898 33.629V35.1804ZM146.838 36.1194V37.9157H149.778V39.5079H146.838V41.4267H150.145V43.1005H144.756V34.4456H150.145V36.1194H146.838ZM155.82 41.3451V43.1414H154.881C154.187 43.1822 153.534 42.9781 153.003 42.529C152.554 42.1207 152.35 41.4675 152.35 40.5694V38.079H151.452V36.3235H152.35V34.6497H154.432V36.3235H155.82V38.079H154.432V40.6102C154.391 40.8143 154.473 41.0185 154.595 41.1818C154.758 41.3042 154.963 41.3451 155.167 41.3451H155.82ZM161.944 36.2419C162.638 36.201 163.332 36.4868 163.822 37.0176C164.312 37.6299 164.557 38.4056 164.516 39.1813V43.1414H162.434V39.4263C162.474 39.018 162.311 38.6506 162.066 38.3648C161.821 38.1198 161.454 37.9565 161.086 37.9974C160.719 37.9974 160.352 38.1198 160.066 38.4056C159.78 38.7322 159.657 39.1405 159.698 39.5487V43.1822H157.616V34.1189H159.698V37.5891C159.902 37.1809 160.188 36.8542 160.556 36.6093C161.005 36.3235 161.454 36.201 161.944 36.2419ZM173.007 39.5487C173.007 39.7529 172.967 39.9162 172.926 40.1203H168.19C168.19 40.5285 168.312 40.9368 168.598 41.2226C168.843 41.4675 169.17 41.59 169.496 41.5492C169.782 41.5492 170.027 41.4675 170.272 41.3042C170.476 41.1409 170.599 40.9368 170.68 40.6918H172.885C172.803 41.1818 172.599 41.59 172.313 41.9983C171.987 42.3657 171.619 42.6923 171.17 42.8964C170.68 43.1005 170.15 43.223 169.619 43.223C169.006 43.223 168.394 43.1006 167.823 42.8148C167.292 42.529 166.884 42.1207 166.598 41.59C166.312 41.0185 166.149 40.3652 166.149 39.712C166.149 39.0588 166.271 38.4056 166.598 37.8341C166.884 37.3033 167.292 36.8951 167.823 36.6093C168.394 36.3235 169.006 36.1602 169.619 36.201C170.231 36.201 170.844 36.3235 171.415 36.6093C171.905 36.8951 172.313 37.2625 172.599 37.7932C172.844 38.324 173.007 38.9364 173.007 39.5487ZM170.884 39.2221C170.925 38.8547 170.803 38.4873 170.517 38.2015C170.272 37.9565 169.945 37.8749 169.578 37.8749C169.211 37.8749 168.884 37.9974 168.639 38.2015C168.353 38.4464 168.231 38.8139 168.231 39.2221H170.884ZM176.804 37.5891C177.049 37.1809 177.417 36.8542 177.825 36.6093C178.233 36.3643 178.682 36.2419 179.172 36.2419V38.4873H178.56C178.111 38.4464 177.661 38.5689 177.253 38.8547C176.927 39.1405 176.763 39.5896 176.804 40.0386V43.1414H174.722V36.3235H176.804V37.5891ZM183.132 36.201C183.867 36.1602 184.602 36.4052 185.214 36.8543C185.745 37.3033 186.072 37.9157 186.194 38.5689H184.234C184.194 38.324 184.071 38.079 183.826 37.9157C183.622 37.7524 183.336 37.6708 183.091 37.6708C182.887 37.6708 182.724 37.7116 182.561 37.8341C182.438 37.9565 182.356 38.1198 182.356 38.2831C182.356 38.4873 182.479 38.6914 182.683 38.7731C183.01 38.8955 183.377 39.018 183.744 39.0997C184.194 39.1813 184.602 39.3038 185.051 39.4671C185.378 39.5896 185.704 39.7937 185.908 40.0795C186.153 40.4061 186.317 40.8143 186.276 41.2226C186.276 41.59 186.153 41.9574 185.949 42.2432C185.704 42.5698 185.378 42.8148 185.051 42.9372C184.602 43.1005 184.112 43.223 183.622 43.1822C182.846 43.223 182.071 43.0189 181.417 42.5698C180.846 42.1616 180.478 41.5084 180.397 40.8143H182.438C182.438 41.1001 182.601 41.3451 182.806 41.4675C183.05 41.6308 183.336 41.7125 183.663 41.7125C183.867 41.7125 184.03 41.6717 184.194 41.5492C184.316 41.4267 184.398 41.2634 184.398 41.1001C184.398 40.896 184.275 40.651 184.071 40.6102C183.704 40.4877 183.336 40.3652 182.969 40.2836C182.561 40.2019 182.111 40.0795 181.703 39.957C181.377 39.8345 181.091 39.6304 180.846 39.3446C180.601 39.018 180.478 38.6097 180.478 38.2423C180.478 37.6708 180.723 37.0992 181.173 36.7726C181.703 36.3643 182.397 36.1602 183.132 36.201ZM191.134 36.201C191.95 36.1602 192.726 36.446 193.338 36.9359C193.951 37.4258 194.359 38.1607 194.482 38.9364H192.277C192.236 38.6506 192.073 38.4056 191.869 38.2423C191.665 38.079 191.379 37.9974 191.093 37.9974C190.726 37.9974 190.399 38.1607 190.195 38.4464C189.95 38.8139 189.827 39.263 189.827 39.712C189.787 40.1611 189.909 40.6102 190.195 40.9776C190.399 41.2634 190.766 41.4267 191.093 41.4267C191.379 41.4267 191.624 41.3451 191.869 41.1818C192.073 41.0185 192.236 40.7735 192.277 40.4877H194.482C194.359 41.2634 193.951 41.9983 193.338 42.4882C192.726 42.9781 191.91 43.2639 191.134 43.223C190.522 43.223 189.909 43.1006 189.338 42.8148C188.807 42.529 188.399 42.1207 188.113 41.59C187.827 41.0185 187.664 40.3652 187.664 39.712C187.664 39.0588 187.786 38.4056 188.113 37.8341C188.399 37.3033 188.807 36.8951 189.338 36.6093C189.909 36.3643 190.522 36.201 191.134 36.201ZM198.768 36.201C199.258 36.201 199.707 36.3235 200.116 36.5685C200.483 36.8134 200.769 37.14 200.932 37.5483V36.3235H203.014V43.1414H200.932V41.9166C200.769 42.3249 200.483 42.6515 200.116 42.8964C199.707 43.1414 199.258 43.2639 198.768 43.2639C198.238 43.2639 197.707 43.1414 197.258 42.8556C196.809 42.5698 196.441 42.1207 196.196 41.6308C195.91 41.0593 195.788 40.4061 195.829 39.7529C195.829 39.0997 195.951 38.4873 196.196 37.8749C196.441 37.385 196.809 36.9767 197.258 36.6501C197.707 36.3643 198.238 36.201 198.768 36.201ZM199.462 38.0382C199.054 38.0382 198.646 38.2015 198.36 38.4873C198.074 38.8139 197.911 39.263 197.952 39.712C197.911 40.1611 198.074 40.6102 198.36 40.9368C198.646 41.2226 199.054 41.3859 199.462 41.3859C199.871 41.3859 200.279 41.2226 200.565 40.9368C200.85 40.6102 201.014 40.1611 200.973 39.712C201.014 39.263 200.85 38.8139 200.565 38.4873C200.238 38.2015 199.871 38.0382 199.462 38.0382ZM209.424 36.2419C210.118 36.201 210.812 36.4868 211.302 37.0176C211.792 37.6299 212.037 38.4056 211.996 39.1813V43.1414H209.914V39.4263C209.954 39.018 209.791 38.6506 209.546 38.3648C209.301 38.1198 208.934 37.9565 208.566 37.9974C208.199 37.9974 207.832 38.1198 207.546 38.4056C207.26 38.7322 207.137 39.1405 207.178 39.5487V43.1822H205.096V36.3643H207.178V37.6299C207.382 37.2217 207.668 36.8951 208.036 36.6501C208.485 36.3235 208.934 36.201 209.424 36.2419Z" fill="white"/>
<path d="M70.0458 16.1149C71.2297 16.3191 72.2912 16.9723 73.0669 17.9112C73.8017 18.8502 74.21 19.9933 74.21 21.1773C74.2916 22.7286 73.6384 24.28 72.4545 25.3007C71.2706 26.3213 69.5967 26.8112 67.3921 26.8112H58.4922V6.07186H67.2288C69.3109 6.07186 70.944 6.52093 72.0463 7.45992C73.1894 8.3989 73.7201 9.66449 73.7201 11.3383C73.7609 12.4815 73.3935 13.6246 72.6995 14.5227C72.0463 15.2984 71.1073 15.87 70.0458 16.1149ZM62.6156 14.7677H66.3307C67.188 14.8085 68.0045 14.5636 68.6986 14.0737C69.2701 13.5837 69.5559 12.8489 69.5151 12.0732C69.5559 11.3383 69.2701 10.6035 68.7394 10.0727C68.2087 9.58284 67.3921 9.37872 66.2899 9.37872H62.6156V14.7677ZM66.5756 23.4227C67.4738 23.4635 68.372 23.2185 69.1068 22.6878C69.7192 22.1571 70.0458 21.3814 70.005 20.6057C70.0458 19.7892 69.7192 19.0135 69.1068 18.4828C68.372 17.9521 67.4738 17.6663 66.5756 17.7479H62.6156V23.4635H66.5756V23.4227ZM82.7425 10.3177C84.7021 10.3177 86.2943 10.8076 87.5191 11.8282C88.7439 12.8489 89.5196 14.2778 89.7645 15.8291H85.8861C85.7636 15.0943 85.3962 14.4411 84.8246 13.9512C84.2122 13.4613 83.4366 13.2163 82.6609 13.2571C82.0893 13.2163 81.4769 13.3796 81.0279 13.747C80.6196 14.0736 80.4155 14.5636 80.4563 15.0943C80.4563 15.5025 80.6196 15.9108 80.9462 16.1966C81.2728 16.4823 81.6811 16.7273 82.1301 16.8498C82.62 17.0131 83.2733 17.1764 84.1714 17.4213C85.192 17.6255 86.2127 17.9112 87.1925 18.2787C87.9682 18.5644 88.6622 19.0952 89.193 19.7076C89.7645 20.4832 90.0911 21.4222 90.0503 22.3612C90.0911 23.6676 89.4787 24.9332 88.4173 25.7497C87.315 26.6071 85.8453 27.0561 84.0081 27.0561C81.8852 27.0561 80.2113 26.5662 78.9049 25.6273C77.5985 24.6474 76.782 23.1777 76.5779 21.5447H80.5379C80.6196 22.2796 80.987 22.9736 81.5994 23.4227C82.2934 23.9126 83.1508 24.1575 83.9673 24.1167C84.5388 24.1575 85.1104 23.9534 85.6003 23.586C85.9677 23.2594 86.1719 22.7695 86.1719 22.2387C86.1719 21.7897 86.0086 21.3814 85.682 21.0956C85.3145 20.769 84.9063 20.5649 84.4572 20.4016C83.9673 20.2383 83.3141 20.075 82.4159 19.83C81.3953 19.6259 80.4155 19.3401 79.4765 18.9727C78.7416 18.6869 78.0476 18.2378 77.5169 17.6255C76.9453 16.8906 76.6595 15.9516 76.7004 15.0535C76.6595 13.7062 77.2719 12.4406 78.3334 11.6241C79.354 10.7668 80.8237 10.3177 82.7425 10.3177ZM100.338 10.3177C102.216 10.2361 104.094 10.8484 105.605 12.0324C107.034 13.2163 107.973 14.8493 108.218 16.6865H103.849C103.727 15.87 103.278 15.1759 102.625 14.6452C101.93 14.1145 101.114 13.8695 100.257 13.9103C99.1952 13.9103 98.2154 14.3186 97.5213 15.1351C96.7865 15.9516 96.4191 17.1356 96.4191 18.6869C96.4191 20.2383 96.7865 21.4631 97.5213 22.2387C98.2154 23.0144 99.236 23.4635 100.257 23.4635C101.114 23.5043 101.971 23.2185 102.625 22.7286C103.278 22.1979 103.686 21.5039 103.849 20.6874H108.218C107.932 22.5245 106.993 24.1575 105.605 25.3415C104.094 26.5254 102.257 27.097 100.379 27.0561C98.9094 27.097 97.4397 26.7295 96.1333 26.0355C94.9085 25.3823 93.9287 24.3617 93.2347 23.1369C92.5406 21.7488 92.1732 20.2383 92.214 18.6869C92.1732 17.1356 92.5406 15.625 93.2347 14.237C93.8879 13.0122 94.9085 11.9915 96.1333 11.3383C97.3989 10.6443 98.8686 10.2769 100.338 10.3177ZM125.405 21.1365C125.405 22.1571 125.119 23.1777 124.629 24.0759C124.058 25.0149 123.241 25.7497 122.262 26.2396C121.078 26.8112 119.771 27.097 118.465 27.0561C117.118 27.097 115.77 26.8112 114.546 26.3213C113.443 25.8722 112.504 25.0965 111.769 24.1575C111.075 23.1777 110.667 22.0346 110.585 20.8507H114.995C115.076 21.6672 115.444 22.402 116.015 22.9328C116.628 23.5043 117.485 23.8309 118.342 23.7901C119.077 23.8309 119.771 23.586 120.343 23.0961C120.792 22.6062 121.078 21.9938 121.037 21.2998C121.078 20.7282 120.874 20.1566 120.465 19.7076C120.057 19.2585 119.608 18.9319 119.036 18.6869C118.465 18.442 117.689 18.1562 116.669 17.7888C115.566 17.4213 114.505 17.0131 113.484 16.5232C112.627 16.0741 111.933 15.4617 111.402 14.686C110.79 13.747 110.504 12.6448 110.545 11.5425C110.463 9.90945 111.198 8.35808 112.463 7.33745C113.729 6.31681 115.444 5.78607 117.567 5.78607C119.771 5.78607 121.527 6.3168 122.833 7.37826C124.14 8.43973 124.915 9.95028 125.038 11.6241H120.588C120.506 10.9301 120.179 10.2769 119.649 9.78698C119.077 9.29707 118.342 9.01128 117.567 9.05211C116.913 9.01128 116.219 9.21541 115.729 9.66449C115.24 10.1136 114.995 10.7668 115.035 11.42C115.035 11.9916 115.199 12.5223 115.566 12.9305C115.934 13.3388 116.424 13.6654 116.954 13.9103C117.689 14.2369 118.465 14.5227 119.241 14.7677C120.343 15.1351 121.445 15.5842 122.507 16.0741C123.364 16.5232 124.099 17.1356 124.629 17.9112C125.16 18.8502 125.446 19.9933 125.405 21.1365ZM135.775 10.3177C137.653 10.2361 139.531 10.8484 141.041 12.0324C142.47 13.2163 143.409 14.8493 143.654 16.6865H139.286C139.163 15.87 138.714 15.1759 138.061 14.6452C137.367 14.1145 136.55 13.8695 135.693 13.9103C134.632 13.9103 133.652 14.3186 132.958 15.1351C132.223 15.9516 131.856 17.1356 131.856 18.6869C131.856 20.2383 132.223 21.4631 132.958 22.2387C133.652 23.0144 134.673 23.4635 135.693 23.4635C136.55 23.5043 137.408 23.2185 138.061 22.7286C138.714 22.1979 139.123 21.5039 139.286 20.6874H143.654C143.368 22.5245 142.429 24.1575 141.041 25.3415C139.531 26.5254 137.694 27.097 135.775 27.0561C134.305 27.097 132.835 26.7295 131.529 26.0355C130.304 25.3823 129.324 24.3617 128.63 23.1369C127.936 21.7488 127.569 20.2383 127.61 18.6869C127.569 17.1356 127.936 15.625 128.63 14.237C129.284 13.0122 130.304 11.9915 131.529 11.3383C132.876 10.6443 134.305 10.2769 135.775 10.3177ZM153.003 10.3177C154.269 10.2769 155.494 10.6035 156.514 11.2975C157.494 11.9099 158.188 12.8489 158.596 13.9103V10.5218H162.72V26.8112H158.596V23.3819C158.188 24.4433 157.453 25.3823 156.514 25.9947C155.453 26.6887 154.228 27.0153 153.003 26.9745C151.697 26.9745 150.431 26.6479 149.288 25.9947C148.186 25.3006 147.288 24.28 146.716 23.0961C146.063 21.708 145.736 20.1975 145.777 18.6461C145.736 17.0947 146.063 15.5842 146.716 14.1961C147.288 13.0122 148.186 11.9915 149.288 11.2975C150.39 10.6443 151.697 10.2769 153.003 10.3177ZM154.269 13.9103C153.085 13.8695 151.942 14.3186 151.166 15.1759C150.39 16.0333 149.982 17.1764 149.982 18.6461C149.982 20.1158 150.39 21.2589 151.166 22.1163C151.983 22.9736 153.126 23.4227 154.269 23.3819C155.453 23.4227 156.555 22.9328 157.371 22.1163C158.229 21.1773 158.637 19.9525 158.596 18.6869C158.678 17.4213 158.229 16.1966 157.371 15.2168C156.596 14.3594 155.453 13.9103 154.269 13.9103ZM176.192 10.2769C177.907 10.1952 179.54 10.8893 180.683 12.114C181.785 13.3388 182.357 15.0943 182.357 17.2989V26.7704H178.233V17.7888C178.233 16.4823 177.907 15.5025 177.254 14.7677C176.559 14.0328 175.539 13.6246 174.518 13.7062C173.457 13.6654 172.436 14.0736 171.701 14.8493C171.007 15.625 170.64 16.7273 170.64 18.1562V26.8112H166.516V10.5218H170.681V13.7879C171.089 12.7264 171.824 11.8282 172.804 11.2159C173.783 10.5627 174.967 10.2769 176.192 10.2769Z" fill="white"/>
</svg>
