<svg width="232" height="44" viewBox="0 0 232 44" fill="none" xmlns="http://www.w3.org/2000/svg">
<path d="M205.054 22.1086C203.86 21.2943 202.557 20.7515 201.254 20.0458C200.44 19.6115 199.571 19.1772 198.866 18.5801C197.671 17.603 197.888 15.6488 199.191 14.7802C200.983 13.5859 203.968 14.2374 204.294 16.6802C204.294 16.7344 204.348 16.7887 204.403 16.7887H207.117C207.171 16.7887 207.225 16.7344 207.225 16.6802C207.063 14.9973 206.411 13.5859 205.217 12.6631C204.077 11.7946 202.774 11.3603 201.363 11.3603C194.197 11.3603 193.546 18.9601 197.4 21.3486C197.834 21.62 201.634 23.52 202.991 24.3885C204.348 25.2028 204.728 26.7227 204.185 27.917C203.643 29.0027 202.286 29.7627 200.928 29.6541C199.408 29.5455 198.268 28.7313 197.834 27.4827C197.78 27.2656 197.726 26.8313 197.726 26.6142C197.726 26.5599 197.671 26.5056 197.617 26.5056H194.686C194.631 26.5056 194.577 26.5599 194.577 26.6142C194.577 28.7313 195.12 29.9255 196.531 31.0112C197.888 32.0426 199.354 32.4769 200.928 32.4769C204.945 32.4769 207.008 30.1969 207.443 27.8627C207.768 25.5828 207.117 23.52 205.054 22.1086Z" fill="white"/>
<path d="M77.1067 11.7946H75.8038H74.3924C74.3382 11.7946 74.2839 11.8488 74.2839 11.8488L71.8411 19.8286C71.7868 19.9372 71.6782 19.9372 71.6239 19.8286L69.1811 11.8488C69.1811 11.7946 69.1269 11.7946 69.0726 11.7946H67.6612H66.3584H64.6213C64.567 11.7946 64.5127 11.8488 64.5127 11.9031V32.2597C64.5127 32.314 64.567 32.3683 64.6213 32.3683H67.5526C67.6069 32.3683 67.6612 32.314 67.6612 32.2597V16.7887C67.6612 16.6801 67.824 16.6259 67.8783 16.7344L70.3211 24.7685L70.484 25.3113C70.484 25.3656 70.5383 25.3656 70.5925 25.3656H72.8725C72.9268 25.3656 72.981 25.3113 72.981 25.3113L73.1439 24.7685L75.5867 16.7344C75.641 16.6259 75.8038 16.6259 75.8038 16.7887V32.2597C75.8038 32.314 75.8581 32.3683 75.9124 32.3683H78.8438C78.898 32.3683 78.9523 32.314 78.9523 32.2597V11.9031C78.9523 11.8488 78.898 11.7946 78.8438 11.7946H77.1067Z" fill="white"/>
<path d="M159.945 11.7946C159.89 11.7946 159.836 11.8488 159.836 11.8488L157.393 19.8286C157.339 19.9372 157.231 19.9372 157.176 19.8286L154.733 11.8488C154.733 11.7946 154.679 11.7946 154.625 11.7946H150.119C150.065 11.7946 150.011 11.8488 150.011 11.9031V32.2597C150.011 32.314 150.065 32.3683 150.119 32.3683H153.051C153.105 32.3683 153.159 32.314 153.159 32.2597V16.7887C153.159 16.6801 153.322 16.6259 153.376 16.7344L155.819 24.7685L155.982 25.3113C155.982 25.3656 156.036 25.3656 156.091 25.3656H158.371C158.425 25.3656 158.479 25.3113 158.479 25.3113L158.642 24.7685L161.085 16.7344C161.139 16.6259 161.302 16.6259 161.302 16.7887V32.2597C161.302 32.314 161.356 32.3683 161.41 32.3683H164.342C164.396 32.3683 164.45 32.314 164.45 32.2597V11.9031C164.45 11.8488 164.396 11.7946 164.342 11.7946H159.945Z" fill="white"/>
<path d="M121.945 11.7946H116.463H113.531H107.994C107.94 11.7946 107.886 11.8488 107.886 11.9031V14.4545C107.886 14.5088 107.94 14.563 107.994 14.563H113.368V32.2597C113.368 32.314 113.423 32.3683 113.477 32.3683H116.408C116.463 32.3683 116.517 32.314 116.517 32.2597V14.563H121.891C121.945 14.563 122 14.5088 122 14.4545V11.9031C122.054 11.8488 122 11.7946 121.945 11.7946Z" fill="white"/>
<path d="M139.316 32.3683H141.976C142.03 32.3683 142.085 32.314 142.085 32.2054L136.548 11.7945C136.548 11.7402 136.493 11.7402 136.439 11.7402H135.408H133.616H132.585C132.531 11.7402 132.476 11.7945 132.476 11.7945L126.939 32.2054C126.939 32.2597 126.994 32.3683 127.048 32.3683H129.708C129.762 32.3683 129.817 32.314 129.817 32.314L131.445 26.3427C131.445 26.2884 131.499 26.2884 131.554 26.2884H137.471C137.525 26.2884 137.579 26.3427 137.579 26.3427L139.208 32.314C139.208 32.314 139.262 32.3683 139.316 32.3683ZM132.259 23.3571L134.431 15.3773C134.485 15.2687 134.594 15.2687 134.648 15.3773L136.819 23.3571C136.819 23.4114 136.765 23.5199 136.711 23.5199H132.422C132.314 23.5199 132.259 23.4114 132.259 23.3571Z" fill="white"/>
<path d="M185.024 32.3683H187.684C187.738 32.3683 187.793 32.314 187.793 32.2054L182.256 11.7945C182.256 11.7402 182.201 11.7402 182.147 11.7402H181.116H179.324H178.293C178.239 11.7402 178.184 11.7945 178.184 11.7945L172.647 32.2054C172.647 32.2597 172.702 32.3683 172.756 32.3683H175.416C175.47 32.3683 175.525 32.314 175.525 32.314L177.153 26.3427C177.153 26.2884 177.207 26.2884 177.262 26.2884H183.179C183.233 26.2884 183.287 26.3427 183.287 26.3427L184.916 32.314C184.916 32.314 184.97 32.3683 185.024 32.3683ZM177.967 23.3571L180.139 15.3773C180.193 15.2687 180.302 15.2687 180.356 15.3773L182.527 23.3571C182.527 23.4114 182.473 23.5199 182.419 23.5199H178.13C178.022 23.5199 177.967 23.4114 177.967 23.3571Z" fill="white"/>
<path d="M90.8946 29.3284V23.0314C90.8946 22.9771 90.9489 22.9228 91.0032 22.9228H98.8744C98.9287 22.9228 98.9829 22.8685 98.9829 22.8143V20.2629C98.9829 20.2086 98.9287 20.1543 98.8744 20.1543H91.0032C90.9489 20.1543 90.8946 20.1 90.8946 20.0458V14.6716C90.8946 14.6173 90.9489 14.563 91.0032 14.563H99.9058C99.9601 14.563 100.014 14.5088 100.014 14.4545V11.9031C100.014 11.8488 99.9601 11.7946 99.9058 11.7946H90.8946H87.8547C87.8004 11.7946 87.7461 11.8488 87.7461 11.9031V14.563V20.2086V22.9771V29.4912V32.2597C87.7461 32.314 87.8004 32.3683 87.8547 32.3683H90.8946H100.286C100.34 32.3683 100.394 32.314 100.394 32.2597V29.5998C100.394 29.5455 100.34 29.4912 100.286 29.4912H90.9489C90.9489 29.4369 90.8946 29.3827 90.8946 29.3284Z" fill="white"/>
<path d="M231.98 32.1511L221.775 21.62C221.721 21.5657 221.721 21.5114 221.775 21.4571L230.949 11.9031C231.003 11.8488 230.949 11.7402 230.895 11.7402H227.149C227.095 11.7402 227.095 11.7402 227.095 11.7945L219.278 19.9372C219.223 19.9914 219.115 19.9372 219.115 19.8829V11.9574C219.115 11.9031 219.061 11.8488 219.006 11.8488H216.021C215.966 11.8488 215.912 11.9031 215.912 11.9574V32.314C215.912 32.3683 215.966 32.4226 216.021 32.4226H218.952C219.006 32.4226 219.061 32.3683 219.061 32.314V23.3571C219.061 23.2485 219.169 23.1942 219.223 23.3028L228.018 32.4226L228.072 32.4768H231.817C231.98 32.3683 232.035 32.2054 231.98 32.1511Z" fill="white"/>
<path d="M44.3726 0.829102L26.5674 14.0745L29.8787 6.25753L44.3726 0.829102Z" fill="#E17726" stroke="#E17726" stroke-linecap="round" stroke-linejoin="round"/>
<path d="M3.22559 0.829102L20.9223 14.183L17.7738 6.25753L3.22559 0.829102Z" fill="#E27625" stroke="#E27625" stroke-linecap="round" stroke-linejoin="round"/>
<path d="M37.9674 31.4997L33.1904 38.7738L43.3959 41.5966L46.2729 31.6625L37.9674 31.4997Z" fill="#E27625" stroke="#E27625" stroke-linecap="round" stroke-linejoin="round"/>
<path d="M1.37988 31.6625L4.25695 41.5966L14.4081 38.7738L9.68538 31.4997L1.37988 31.6625Z" fill="#E27625" stroke="#E27625" stroke-linecap="round" stroke-linejoin="round"/>
<path d="M13.8658 19.2315L11.043 23.5199L21.0856 23.9542L20.7599 13.0974L13.8658 19.2315Z" fill="#E27625" stroke="#E27625" stroke-linecap="round" stroke-linejoin="round"/>
<path d="M33.7882 19.2315L26.7855 12.9888L26.5684 23.9542L36.611 23.5199L33.7882 19.2315Z" fill="#E27625" stroke="#E27625" stroke-linecap="round" stroke-linejoin="round"/>
<path d="M14.4082 38.7738L20.488 35.8425L15.2225 31.7169L14.4082 38.7738Z" fill="#E27625" stroke="#E27625" stroke-linecap="round" stroke-linejoin="round"/>
<path d="M27.165 35.8425L33.1906 38.7738L32.3763 31.7169L27.165 35.8425Z" fill="#E27625" stroke="#E27625" stroke-linecap="round" stroke-linejoin="round"/>
<path d="M33.1906 38.7738L27.165 35.8425L27.6536 39.7509L27.5993 41.4338L33.1906 38.7738Z" fill="#D5BFB2" stroke="#D5BFB2" stroke-linecap="round" stroke-linejoin="round"/>
<path d="M14.4082 38.7738L20.0538 41.4338L19.9995 39.7509L20.488 35.8425L14.4082 38.7738Z" fill="#D5BFB2" stroke="#D5BFB2" stroke-linecap="round" stroke-linejoin="round"/>
<path d="M20.1627 29.1112L15.1143 27.6456L18.6427 26.017L20.1627 29.1112Z" fill="#233447" stroke="#233447" stroke-linecap="round" stroke-linejoin="round"/>
<path d="M27.4902 29.1112L28.9559 26.017L32.5387 27.6456L27.4902 29.1112Z" fill="#233447" stroke="#233447" stroke-linecap="round" stroke-linejoin="round"/>
<path d="M14.4083 38.7738L15.2768 31.4997L9.68555 31.6625L14.4083 38.7738Z" fill="#CC6228" stroke="#CC6228" stroke-linecap="round" stroke-linejoin="round"/>
<path d="M32.376 31.4997L33.1902 38.7738L37.9673 31.6625L32.376 31.4997Z" fill="#CC6228" stroke="#CC6228" stroke-linecap="round" stroke-linejoin="round"/>
<path d="M36.61 23.5199L26.5674 23.9542L27.4902 29.1112L28.9559 26.017L32.5387 27.6455L36.61 23.5199Z" fill="#CC6228" stroke="#CC6228" stroke-linecap="round" stroke-linejoin="round"/>
<path d="M15.1143 27.6455L18.6428 26.017L20.1627 29.1112L21.0856 23.9542L11.043 23.5199L15.1143 27.6455Z" fill="#CC6228" stroke="#CC6228" stroke-linecap="round" stroke-linejoin="round"/>
<path d="M11.042 23.52L15.2219 31.7169L15.1133 27.6456L11.042 23.52Z" fill="#E27525" stroke="#E27525" stroke-linecap="round" stroke-linejoin="round"/>
<path d="M32.5388 27.6456L32.376 31.7169L36.6102 23.52L32.5388 27.6456Z" fill="#E27525" stroke="#E27525" stroke-linecap="round" stroke-linejoin="round"/>
<path d="M21.0849 23.9542L20.1621 29.1112L21.3021 35.2454L21.5735 27.157L21.0849 23.9542Z" fill="#E27525" stroke="#E27525" stroke-linecap="round" stroke-linejoin="round"/>
<path d="M26.5677 23.9542L26.0791 27.157L26.2962 35.2454L27.4905 29.1112L26.5677 23.9542Z" fill="#E27525" stroke="#E27525" stroke-linecap="round" stroke-linejoin="round"/>
<path d="M27.4902 29.1112L26.2959 35.2454L27.1644 35.8425L32.3757 31.7169L32.5386 27.6456L27.4902 29.1112Z" fill="#F5841F" stroke="#F5841F" stroke-linecap="round" stroke-linejoin="round"/>
<path d="M15.1143 27.6456L15.2228 31.7169L20.4884 35.8425L21.3027 35.2454L20.1627 29.1112L15.1143 27.6456Z" fill="#F5841F" stroke="#F5841F" stroke-linecap="round" stroke-linejoin="round"/>
<path d="M27.5993 41.4337L27.6536 39.7509L27.165 39.3709H20.4338L19.9995 39.7509L20.0538 41.4337L14.4082 38.7738L16.3624 40.4023L20.3795 43.1708H27.2193L31.2363 40.4023L33.1906 38.7738L27.5993 41.4337Z" fill="#C0AC9D" stroke="#C0AC9D" stroke-linecap="round" stroke-linejoin="round"/>
<path d="M27.1645 35.8425L26.296 35.2454H21.3018L20.4876 35.8425L19.999 39.751L20.4333 39.371H27.1645L27.6531 39.751L27.1645 35.8425Z" fill="#161616" stroke="#161616" stroke-linecap="round" stroke-linejoin="round"/>
<path d="M45.1331 14.943L46.6531 7.61464L44.3732 0.829102L27.165 13.6402L33.7877 19.2315L43.1246 21.9457L45.1874 19.5572L44.3189 18.9058L45.7303 17.603L44.6446 16.7344L46.056 15.6487L45.1331 14.943Z" fill="#763E1A" stroke="#763E1A" stroke-linecap="round" stroke-linejoin="round"/>
<path d="M1 7.61464L2.51996 14.943L1.54284 15.6487L2.95423 16.7344L1.86855 17.603L3.33422 18.9058L2.41139 19.5572L4.4742 21.9457L13.8654 19.2315L20.4881 13.6402L3.22565 0.829102L1 7.61464Z" fill="#763E1A" stroke="#763E1A" stroke-linecap="round" stroke-linejoin="round"/>
<path d="M43.1243 21.9457L33.7874 19.2315L36.6102 23.52L32.376 31.7169L37.9673 31.6626H46.2728L43.1243 21.9457Z" fill="#F5841F" stroke="#F5841F" stroke-linecap="round" stroke-linejoin="round"/>
<path d="M13.8653 19.2315L4.47409 21.9457L1.37988 31.6626H9.68538L15.2224 31.7169L11.0425 23.52L13.8653 19.2315Z" fill="#F5841F" stroke="#F5841F" stroke-linecap="round" stroke-linejoin="round"/>
<path d="M26.5685 23.9542L27.1656 13.6402L29.8798 6.25751H17.7744L20.4886 13.6402L21.0858 23.9542L21.3029 27.2112V35.2453H26.297V27.2112L26.5685 23.9542Z" fill="#F5841F" stroke="#F5841F" stroke-linecap="round" stroke-linejoin="round"/>
</svg>
