<svg width="118" height="118" viewBox="0 0 118 118" fill="none" xmlns="http://www.w3.org/2000/svg">
<path fill-rule="evenodd" clip-rule="evenodd" d="M58.5427 117.088C90.7869 117.088 117.085 90.789 117.085 58.5427C117.085 26.2985 90.7869 0 58.5427 0C26.2985 0 0 26.2985 0 58.5427C0 90.789 26.2985 117.088 58.5427 117.088Z" fill="white"/>
<path fill-rule="evenodd" clip-rule="evenodd" d="M58.5429 106.525C84.9711 106.525 106.525 84.9711 106.525 58.5429C106.525 32.1168 84.9711 10.5625 58.5429 10.5625C32.1146 10.5625 10.5625 32.1168 10.5625 58.5429C10.5625 84.9711 32.1168 106.525 58.5429 106.525Z" fill="#9935AB"/>
<path opacity="0.2" fill-rule="evenodd" clip-rule="evenodd" d="M58.5428 10.5625C73.7708 10.5625 87.3421 17.6586 96.1331 28.725C88.4521 23.5023 79.1784 20.4508 69.1902 20.4508C42.6919 20.4508 21.2078 41.9327 21.2078 68.4332C21.2078 79.7037 25.095 90.064 31.6 98.2532C18.9026 89.6196 10.5625 75.0594 10.5625 58.5471C10.5625 32.0445 32.0445 10.5625 58.5428 10.5625Z" fill="black"/>
<path d="M56.2803 56.1729V60.7188C56.2803 62.7969 56.07 64.5719 55.6494 66.0439C55.2288 67.516 54.6227 68.722 53.8311 69.6621C53.0394 70.5898 52.0931 71.2764 50.9922 71.7217C49.8913 72.1546 48.6667 72.3711 47.3184 72.3711C46.2422 72.3711 45.2402 72.235 44.3125 71.9629C43.3848 71.6784 42.5498 71.2454 41.8076 70.6641C41.0778 70.0703 40.4469 69.3158 39.915 68.4004C39.3955 67.485 38.9935 66.3903 38.709 65.1162C38.4368 63.8421 38.3008 62.3763 38.3008 60.7188V56.1729C38.3008 54.0947 38.5111 52.3258 38.9316 50.8662C39.3646 49.4066 39.9769 48.2129 40.7686 47.2852C41.5602 46.3574 42.5065 45.6833 43.6074 45.2627C44.7083 44.8298 45.9329 44.6133 47.2812 44.6133C48.3698 44.6133 49.3717 44.7493 50.2871 45.0215C51.2148 45.2936 52.0436 45.7204 52.7734 46.3018C53.5156 46.8708 54.1465 47.613 54.666 48.5283C55.1855 49.4313 55.5814 50.5199 55.8535 51.7939C56.138 53.0557 56.2803 54.5153 56.2803 56.1729ZM51.3818 61.3867V55.4863C51.3818 54.4473 51.32 53.5443 51.1963 52.7773C51.085 51.998 50.918 51.3363 50.6953 50.792C50.4727 50.2477 50.1943 49.8086 49.8604 49.4746C49.5264 49.1283 49.1429 48.8747 48.71 48.7139C48.277 48.5531 47.8008 48.4727 47.2812 48.4727C46.638 48.4727 46.0628 48.6025 45.5557 48.8623C45.0485 49.1097 44.6217 49.5055 44.2754 50.0498C43.929 50.5941 43.6631 51.3177 43.4775 52.2207C43.3044 53.1113 43.2178 54.1999 43.2178 55.4863V61.3867C43.2178 62.4258 43.2734 63.335 43.3848 64.1143C43.5085 64.8936 43.6816 65.5615 43.9043 66.1182C44.1393 66.6748 44.4176 67.1325 44.7393 67.4912C45.0732 67.8376 45.4567 68.0973 45.8896 68.2705C46.3226 68.4313 46.7988 68.5117 47.3184 68.5117C47.974 68.5117 48.5492 68.3818 49.0439 68.1221C49.5511 67.8623 49.9779 67.4541 50.3242 66.8975C50.6706 66.3285 50.9303 65.5924 51.1035 64.6895C51.2891 63.7741 51.3818 62.6732 51.3818 61.3867ZM72.7197 44.9102V72H67.8027V50.6436L61.29 52.7959V48.8252L72.1631 44.9102H72.7197Z" fill="white"/>
</svg>
