<svg width="124" height="124" viewBox="0 0 124 124" fill="none" xmlns="http://www.w3.org/2000/svg">
<path d="M120.876 65.1314C122.58 32.8433 97.7875 5.28726 65.5005 3.58335C33.2135 1.87944 5.65842 26.6729 3.95445 58.961C2.25048 91.2492 27.0429 118.805 59.3299 120.509C91.6169 122.213 119.172 97.4196 120.876 65.1314Z" fill="white"/>
<path d="M62.4442 110.037C88.943 110.037 110.425 88.5553 110.425 62.0565C110.425 35.5577 88.943 14.0762 62.4442 14.0762C35.9454 14.0762 14.4639 35.5577 14.4639 62.0565C14.4639 88.5553 35.9454 110.037 62.4442 110.037Z" fill="#FFE817"/>
<path opacity="0.2" fill-rule="evenodd" clip-rule="evenodd" d="M62.4442 14.0762C77.6721 14.0762 91.2434 21.1723 100.034 32.2365C92.3535 27.0138 83.0798 23.9623 73.0916 23.9623C46.5933 23.9623 25.1092 45.4443 25.1092 71.9448C25.1092 83.2152 28.9964 93.5756 35.5014 101.765C22.804 93.1333 14.4639 78.571 14.4639 62.0586C14.4639 35.5581 35.9458 14.0762 62.4442 14.0762Z" fill="black"/>
<path d="M60.2803 57.9795V62.5254C60.2803 64.6035 60.07 66.3786 59.6494 67.8506C59.2288 69.3226 58.6227 70.5286 57.8311 71.4688C57.0394 72.3965 56.0931 73.083 54.9922 73.5283C53.8913 73.9613 52.6667 74.1777 51.3184 74.1777C50.2422 74.1777 49.2402 74.0417 48.3125 73.7695C47.3848 73.485 46.5498 73.0521 45.8076 72.4707C45.0778 71.877 44.4469 71.1224 43.915 70.207C43.3955 69.2917 42.9935 68.1969 42.709 66.9229C42.4368 65.6488 42.3008 64.1829 42.3008 62.5254V57.9795C42.3008 55.9014 42.5111 54.1325 42.9316 52.6729C43.3646 51.2132 43.9769 50.0195 44.7686 49.0918C45.5602 48.1641 46.5065 47.4899 47.6074 47.0693C48.7083 46.6364 49.9329 46.4199 51.2812 46.4199C52.3698 46.4199 53.3717 46.556 54.2871 46.8281C55.2148 47.1003 56.0436 47.527 56.7734 48.1084C57.5156 48.6774 58.1465 49.4196 58.666 50.335C59.1855 51.238 59.5814 52.3265 59.8535 53.6006C60.138 54.8623 60.2803 56.3219 60.2803 57.9795ZM55.3818 63.1934V57.293C55.3818 56.2539 55.32 55.3509 55.1963 54.584C55.085 53.8047 54.918 53.1429 54.6953 52.5986C54.4727 52.0544 54.1943 51.6152 53.8604 51.2812C53.5264 50.9349 53.1429 50.6813 52.71 50.5205C52.277 50.3597 51.8008 50.2793 51.2812 50.2793C50.638 50.2793 50.0628 50.4092 49.5557 50.6689C49.0485 50.9163 48.6217 51.3122 48.2754 51.8564C47.929 52.4007 47.6631 53.1243 47.4775 54.0273C47.3044 54.918 47.2178 56.0065 47.2178 57.293V63.1934C47.2178 64.2324 47.2734 65.1416 47.3848 65.9209C47.5085 66.7002 47.6816 67.3682 47.9043 67.9248C48.1393 68.4814 48.4176 68.9391 48.7393 69.2979C49.0732 69.6442 49.4567 69.904 49.8896 70.0771C50.3226 70.238 50.7988 70.3184 51.3184 70.3184C51.974 70.3184 52.5492 70.1885 53.0439 69.9287C53.5511 69.6689 53.9779 69.2607 54.3242 68.7041C54.6706 68.1351 54.9303 67.3991 55.1035 66.4961C55.2891 65.5807 55.3818 64.4798 55.3818 63.1934ZM82.3975 69.9473V73.8066H64.1025V70.5039L72.8789 61.0225C73.7943 59.9834 74.5179 59.0804 75.0498 58.3135C75.5817 57.5465 75.959 56.8538 76.1816 56.2354C76.4167 55.6045 76.5342 55.0046 76.5342 54.4355C76.5342 53.6068 76.3857 52.8831 76.0889 52.2646C75.792 51.6338 75.359 51.1452 74.79 50.7988C74.2334 50.4525 73.5469 50.2793 72.7305 50.2793C71.8275 50.2793 71.0544 50.4896 70.4111 50.9102C69.7803 51.3184 69.2979 51.8874 68.9639 52.6172C68.6423 53.347 68.4814 54.182 68.4814 55.1221H63.5645C63.5645 53.5264 63.9355 52.0729 64.6777 50.7617C65.4199 49.4382 66.4837 48.3805 67.8691 47.5889C69.2546 46.7972 70.8997 46.4014 72.8047 46.4014C74.6602 46.4014 76.2311 46.7106 77.5176 47.3291C78.804 47.9352 79.7812 48.8011 80.4492 49.9268C81.1172 51.0524 81.4512 52.3945 81.4512 53.9531C81.4512 54.819 81.3089 55.6725 81.0244 56.5137C80.7399 57.3548 80.3379 58.1898 79.8184 59.0186C79.3112 59.835 78.7051 60.6637 78 61.5049C77.2949 62.346 76.5094 63.2057 75.6436 64.084L70.374 69.9473H82.3975Z" fill="white"/>
</svg>
