<svg width="118" height="118" viewBox="0 0 118 118" fill="none" xmlns="http://www.w3.org/2000/svg">
<path fill-rule="evenodd" clip-rule="evenodd" d="M58.5427 117.117C90.7869 117.117 117.085 90.8162 117.085 58.572C117.085 26.3278 90.7869 0.0292969 58.5427 0.0292969C26.2985 0.0292969 0 26.3278 0 58.572C0 90.8162 26.2985 117.117 58.5427 117.117Z" fill="white"/>
<path fill-rule="evenodd" clip-rule="evenodd" d="M58.5429 106.553C84.9711 106.553 106.525 84.9984 106.525 58.5702C106.525 32.1441 84.9711 10.5898 58.5429 10.5898C32.1146 10.5898 10.5625 32.1441 10.5625 58.5702C10.5625 84.9963 32.1168 106.553 58.5429 106.553Z" fill="#8BEEFF"/>
<path opacity="0.2" fill-rule="evenodd" clip-rule="evenodd" d="M58.5428 10.5898C73.7708 10.5898 87.3421 17.686 96.1331 28.7502C88.4521 23.5275 79.1784 20.4759 69.1902 20.4759C42.6919 20.4759 21.2078 41.9579 21.2078 68.4584C21.2078 79.7289 25.095 90.0892 31.6 98.2784C18.9026 89.6448 10.5625 75.0846 10.5625 58.5723C10.5625 32.0718 32.0445 10.5898 58.5428 10.5898Z" fill="black"/>
<path d="M56.2803 55.9795V60.5254C56.2803 62.6035 56.07 64.3786 55.6494 65.8506C55.2288 67.3226 54.6227 68.5286 53.8311 69.4688C53.0394 70.3965 52.0931 71.083 50.9922 71.5283C49.8913 71.9613 48.6667 72.1777 47.3184 72.1777C46.2422 72.1777 45.2402 72.0417 44.3125 71.7695C43.3848 71.485 42.5498 71.0521 41.8076 70.4707C41.0778 69.877 40.4469 69.1224 39.915 68.207C39.3955 67.2917 38.9935 66.1969 38.709 64.9229C38.4368 63.6488 38.3008 62.1829 38.3008 60.5254V55.9795C38.3008 53.9014 38.5111 52.1325 38.9316 50.6729C39.3646 49.2132 39.9769 48.0195 40.7686 47.0918C41.5602 46.1641 42.5065 45.4899 43.6074 45.0693C44.7083 44.6364 45.9329 44.4199 47.2812 44.4199C48.3698 44.4199 49.3717 44.556 50.2871 44.8281C51.2148 45.1003 52.0436 45.527 52.7734 46.1084C53.5156 46.6774 54.1465 47.4196 54.666 48.335C55.1855 49.238 55.5814 50.3265 55.8535 51.6006C56.138 52.8623 56.2803 54.3219 56.2803 55.9795ZM51.3818 61.1934V55.293C51.3818 54.2539 51.32 53.3509 51.1963 52.584C51.085 51.8047 50.918 51.1429 50.6953 50.5986C50.4727 50.0544 50.1943 49.6152 49.8604 49.2812C49.5264 48.9349 49.1429 48.6813 48.71 48.5205C48.277 48.3597 47.8008 48.2793 47.2812 48.2793C46.638 48.2793 46.0628 48.4092 45.5557 48.6689C45.0485 48.9163 44.6217 49.3122 44.2754 49.8564C43.929 50.4007 43.6631 51.1243 43.4775 52.0273C43.3044 52.918 43.2178 54.0065 43.2178 55.293V61.1934C43.2178 62.2324 43.2734 63.1416 43.3848 63.9209C43.5085 64.7002 43.6816 65.3682 43.9043 65.9248C44.1393 66.4814 44.4176 66.9391 44.7393 67.2979C45.0732 67.6442 45.4567 67.904 45.8896 68.0771C46.3226 68.238 46.7988 68.3184 47.3184 68.3184C47.974 68.3184 48.5492 68.1885 49.0439 67.9287C49.5511 67.6689 49.9779 67.2607 50.3242 66.7041C50.6706 66.1351 50.9303 65.3991 51.1035 64.4961C51.2891 63.5807 51.3818 62.4798 51.3818 61.1934ZM65.4648 56.1279H68.2295C69.2067 56.1279 70.0107 55.9609 70.6416 55.627C71.2848 55.2806 71.7611 54.8105 72.0703 54.2168C72.3919 53.6107 72.5527 52.9118 72.5527 52.1201C72.5527 51.3408 72.4105 50.6667 72.126 50.0977C71.8415 49.5163 71.4085 49.071 70.8271 48.7617C70.2581 48.4401 69.5283 48.2793 68.6377 48.2793C67.9202 48.2793 67.2585 48.4215 66.6523 48.7061C66.0586 48.9906 65.5824 49.3988 65.2236 49.9307C64.8773 50.4502 64.7041 51.0749 64.7041 51.8047H59.7871C59.7871 50.3451 60.1706 49.0648 60.9375 47.9639C61.7168 46.8506 62.7682 45.9785 64.0918 45.3477C65.4154 44.7168 66.8936 44.4014 68.5264 44.4014C70.3076 44.4014 71.8662 44.6982 73.2021 45.292C74.5505 45.8734 75.5957 46.7331 76.3379 47.8711C77.0924 49.0091 77.4697 50.4193 77.4697 52.1016C77.4697 52.9056 77.278 53.7096 76.8945 54.5137C76.5234 55.3053 75.973 56.0228 75.2432 56.666C74.5257 57.2969 73.6413 57.8102 72.5898 58.2061C71.5508 58.5895 70.3571 58.7812 69.0088 58.7812H65.4648V56.1279ZM65.4648 59.9131V57.2969H69.0088C70.5303 57.2969 71.8477 57.4762 72.9609 57.835C74.0866 58.1813 75.0143 58.6761 75.7441 59.3193C76.474 59.9502 77.012 60.6862 77.3584 61.5273C77.7171 62.3685 77.8965 63.2715 77.8965 64.2363C77.8965 65.498 77.6615 66.6237 77.1914 67.6133C76.7214 68.5905 76.0596 69.4193 75.2061 70.0996C74.3649 70.7799 73.3753 71.2995 72.2373 71.6582C71.0993 72.0046 69.8685 72.1777 68.5449 72.1777C67.3945 72.1777 66.2751 72.0231 65.1865 71.7139C64.1104 71.3923 63.1393 70.916 62.2734 70.2852C61.4076 69.6419 60.721 68.8379 60.2139 67.873C59.7067 66.8958 59.4531 65.764 59.4531 64.4775H64.3701C64.3701 65.2197 64.5495 65.8815 64.9082 66.4629C65.2793 67.0443 65.7865 67.502 66.4297 67.8359C67.0853 68.1576 67.8213 68.3184 68.6377 68.3184C69.5407 68.3184 70.3138 68.1576 70.957 67.8359C71.6126 67.502 72.1136 67.0319 72.46 66.4258C72.8063 65.8073 72.9795 65.0713 72.9795 64.2178C72.9795 63.2035 72.7878 62.3809 72.4043 61.75C72.0208 61.1191 71.4704 60.6553 70.7529 60.3584C70.0479 60.0615 69.2067 59.9131 68.2295 59.9131H65.4648Z" fill="white"/>
</svg>
