<svg width="118" height="118" viewBox="0 0 118 118" fill="none" xmlns="http://www.w3.org/2000/svg">
<path fill-rule="evenodd" clip-rule="evenodd" d="M59.2907 117.824C91.5349 117.824 117.833 91.5254 117.833 59.279C117.833 27.0348 91.5349 0.736328 59.2907 0.736328C27.0465 0.736328 0.748047 27.0348 0.748047 59.279C0.748047 91.5254 27.0465 117.824 59.2907 117.824Z" fill="white"/>
<path d="M59.2909 107.26C85.7897 107.26 107.271 85.778 107.271 59.2792C107.271 32.7804 85.7897 11.2988 59.2909 11.2988C32.7921 11.2988 11.3105 32.7804 11.3105 59.2792C11.3105 85.778 32.7921 107.26 59.2909 107.26Z" fill="#955FFF"/>
<path opacity="0.2" fill-rule="evenodd" clip-rule="evenodd" d="M59.2909 11.2988C74.5188 11.2988 88.0901 18.395 96.8811 29.4592C89.2002 24.2365 79.9265 21.185 69.9383 21.185C43.4399 21.185 21.9559 42.6669 21.9559 69.1674C21.9559 80.4379 25.8431 90.7983 32.3481 98.9875C19.6507 90.356 11.3105 75.7936 11.3105 59.2813C11.3105 32.7808 32.7925 11.2988 59.2909 11.2988Z" fill="black"/>
<path d="M57.126 56.1729V60.7188C57.126 62.7969 56.9157 64.5719 56.4951 66.0439C56.0745 67.516 55.4684 68.722 54.6768 69.6621C53.8851 70.5898 52.9388 71.2764 51.8379 71.7217C50.737 72.1546 49.5124 72.3711 48.1641 72.3711C47.0879 72.3711 46.0859 72.235 45.1582 71.9629C44.2305 71.6784 43.3955 71.2454 42.6533 70.6641C41.9235 70.0703 41.2926 69.3158 40.7607 68.4004C40.2412 67.485 39.8392 66.3903 39.5547 65.1162C39.2826 63.8421 39.1465 62.3763 39.1465 60.7188V56.1729C39.1465 54.0947 39.3568 52.3258 39.7773 50.8662C40.2103 49.4066 40.8226 48.2129 41.6143 47.2852C42.4059 46.3574 43.3522 45.6833 44.4531 45.2627C45.554 44.8298 46.7786 44.6133 48.127 44.6133C49.2155 44.6133 50.2174 44.7493 51.1328 45.0215C52.0605 45.2936 52.8893 45.7204 53.6191 46.3018C54.3613 46.8708 54.9922 47.613 55.5117 48.5283C56.0312 49.4313 56.4271 50.5199 56.6992 51.7939C56.9837 53.0557 57.126 54.5153 57.126 56.1729ZM52.2275 61.3867V55.4863C52.2275 54.4473 52.1657 53.5443 52.042 52.7773C51.9307 51.998 51.7637 51.3363 51.541 50.792C51.3184 50.2477 51.04 49.8086 50.7061 49.4746C50.3721 49.1283 49.9886 48.8747 49.5557 48.7139C49.1227 48.5531 48.6465 48.4727 48.127 48.4727C47.4837 48.4727 46.9085 48.6025 46.4014 48.8623C45.8942 49.1097 45.4674 49.5055 45.1211 50.0498C44.7747 50.5941 44.5088 51.3177 44.3232 52.2207C44.1501 53.1113 44.0635 54.1999 44.0635 55.4863V61.3867C44.0635 62.4258 44.1191 63.335 44.2305 64.1143C44.3542 64.8936 44.5273 65.5615 44.75 66.1182C44.985 66.6748 45.2633 67.1325 45.585 67.4912C45.9189 67.8376 46.3024 68.0973 46.7354 68.2705C47.1683 68.4313 47.6445 68.5117 48.1641 68.5117C48.8197 68.5117 49.3949 68.3818 49.8896 68.1221C50.3968 67.8623 50.8236 67.4541 51.1699 66.8975C51.5163 66.3285 51.776 65.5924 51.9492 64.6895C52.1348 63.7741 52.2275 62.6732 52.2275 61.3867ZM79.707 62.1475V66.0068H60.2432L60.0391 63.0381L71.4873 44.9844H75.4023L71.1719 52.165L65.0303 62.1475H79.707ZM76.4971 44.9844V72H71.5801V44.9844H76.4971Z" fill="white"/>
</svg>
