<svg width="118" height="118" viewBox="0 0 118 118" fill="none" xmlns="http://www.w3.org/2000/svg">
<path d="M59.3886 117.34C91.722 117.34 117.933 91.1282 117.933 58.7948C117.933 26.4614 91.722 0.25 59.3886 0.25C27.0552 0.25 0.84375 26.4614 0.84375 58.7948C0.84375 91.1282 27.0552 117.34 59.3886 117.34Z" fill="white"/>
<path fill-rule="evenodd" clip-rule="evenodd" d="M59.3886 106.777C85.8168 106.777 107.371 85.223 107.371 58.7948C107.371 32.3687 85.8168 10.8145 59.3886 10.8145C32.9603 10.8145 11.4082 32.3687 11.4082 58.7948C11.4082 85.2209 32.9625 106.777 59.3886 106.777Z" fill="#FF90FB"/>
<path opacity="0.2" fill-rule="evenodd" clip-rule="evenodd" d="M59.3886 10.8145C74.6165 10.8145 88.1878 17.9106 96.9788 28.9748C89.2978 23.7521 80.0241 20.7005 70.0359 20.7005C43.5376 20.7005 22.0535 42.1825 22.0535 68.683C22.0535 79.9535 25.9407 90.3138 32.4457 98.503C19.7483 89.8694 11.4082 75.3071 11.4082 58.7969C11.4082 32.2964 32.8902 10.8145 59.3886 10.8145Z" fill="black"/>
<path d="M57.126 56.1729V60.7188C57.126 62.7969 56.9157 64.5719 56.4951 66.0439C56.0745 67.516 55.4684 68.722 54.6768 69.6621C53.8851 70.5898 52.9388 71.2764 51.8379 71.7217C50.737 72.1546 49.5124 72.3711 48.1641 72.3711C47.0879 72.3711 46.0859 72.235 45.1582 71.9629C44.2305 71.6784 43.3955 71.2454 42.6533 70.6641C41.9235 70.0703 41.2926 69.3158 40.7607 68.4004C40.2412 67.485 39.8392 66.3903 39.5547 65.1162C39.2826 63.8421 39.1465 62.3763 39.1465 60.7188V56.1729C39.1465 54.0947 39.3568 52.3258 39.7773 50.8662C40.2103 49.4066 40.8226 48.2129 41.6143 47.2852C42.4059 46.3574 43.3522 45.6833 44.4531 45.2627C45.554 44.8298 46.7786 44.6133 48.127 44.6133C49.2155 44.6133 50.2174 44.7493 51.1328 45.0215C52.0605 45.2936 52.8893 45.7204 53.6191 46.3018C54.3613 46.8708 54.9922 47.613 55.5117 48.5283C56.0312 49.4313 56.4271 50.5199 56.6992 51.7939C56.9837 53.0557 57.126 54.5153 57.126 56.1729ZM52.2275 61.3867V55.4863C52.2275 54.4473 52.1657 53.5443 52.042 52.7773C51.9307 51.998 51.7637 51.3363 51.541 50.792C51.3184 50.2477 51.04 49.8086 50.7061 49.4746C50.3721 49.1283 49.9886 48.8747 49.5557 48.7139C49.1227 48.5531 48.6465 48.4727 48.127 48.4727C47.4837 48.4727 46.9085 48.6025 46.4014 48.8623C45.8942 49.1097 45.4674 49.5055 45.1211 50.0498C44.7747 50.5941 44.5088 51.3177 44.3232 52.2207C44.1501 53.1113 44.0635 54.1999 44.0635 55.4863V61.3867C44.0635 62.4258 44.1191 63.335 44.2305 64.1143C44.3542 64.8936 44.5273 65.5615 44.75 66.1182C44.985 66.6748 45.2633 67.1325 45.585 67.4912C45.9189 67.8376 46.3024 68.0973 46.7354 68.2705C47.1683 68.4313 47.6445 68.5117 48.1641 68.5117C48.8197 68.5117 49.3949 68.3818 49.8896 68.1221C50.3968 67.8623 50.8236 67.4541 51.1699 66.8975C51.5163 66.3285 51.776 65.5924 51.9492 64.6895C52.1348 63.7741 52.2275 62.6732 52.2275 61.3867ZM65.8096 59.5684L61.8945 58.6221L63.3975 44.9844H78.2598V49.0479H67.4609L66.7559 55.3564C67.1393 55.1214 67.696 54.8864 68.4258 54.6514C69.168 54.404 70.0029 54.2803 70.9307 54.2803C72.2171 54.2803 73.3675 54.4906 74.3818 54.9111C75.3962 55.3193 76.2559 55.9131 76.9609 56.6924C77.6784 57.4717 78.2165 58.4242 78.5752 59.5498C78.9463 60.6631 79.1318 61.9248 79.1318 63.335C79.1318 64.5719 78.9463 65.7347 78.5752 66.8232C78.2165 67.8994 77.666 68.8581 76.9238 69.6992C76.1816 70.528 75.2477 71.1836 74.1221 71.666C72.9964 72.1361 71.6729 72.3711 70.1514 72.3711C69.001 72.3711 67.8939 72.2041 66.8301 71.8701C65.7786 71.5238 64.8324 71.0228 63.9912 70.3672C63.1501 69.6992 62.4759 68.8828 61.9688 67.918C61.474 66.9531 61.2018 65.846 61.1523 64.5967H65.9951C66.0817 65.4255 66.3044 66.1305 66.6631 66.7119C67.0218 67.2933 67.4919 67.7386 68.0732 68.0479C68.667 68.3571 69.3535 68.5117 70.1328 68.5117C70.8379 68.5117 71.444 68.3818 71.9512 68.1221C72.4707 67.8499 72.8975 67.4727 73.2314 66.9902C73.5654 66.5078 73.8128 65.9388 73.9736 65.2832C74.1344 64.6276 74.2148 63.9102 74.2148 63.1309C74.2148 62.3763 74.1221 61.6898 73.9365 61.0713C73.751 60.4404 73.4665 59.8962 73.083 59.4385C72.6995 58.9808 72.2171 58.6283 71.6357 58.3809C71.0667 58.1335 70.3988 58.0098 69.6318 58.0098C68.6051 58.0098 67.8135 58.1644 67.2568 58.4736C66.7126 58.7829 66.2301 59.1478 65.8096 59.5684Z" fill="white"/>
</svg>
